G04 EAGLE Gerber X2 export*
G75*
%MOMM*%
%FSLAX34Y34*%
%LPD*%
%AMOC8*
5,1,8,0,0,1.08239X$1,22.5*%
G01*
%ADD10C,1.879600*%

G36*
X32149Y1286D02*
X32149Y1286D01*
X32246Y1296D01*
X32270Y1306D01*
X32296Y1310D01*
X32382Y1356D01*
X32471Y1396D01*
X32490Y1413D01*
X32513Y1426D01*
X32580Y1496D01*
X32652Y1562D01*
X32665Y1585D01*
X32683Y1604D01*
X32724Y1692D01*
X32771Y1778D01*
X32775Y1803D01*
X32786Y1827D01*
X32797Y1924D01*
X32814Y2020D01*
X32811Y2046D01*
X32813Y2071D01*
X32793Y2167D01*
X32779Y2263D01*
X32767Y2286D01*
X32761Y2312D01*
X32711Y2395D01*
X32667Y2482D01*
X32648Y2501D01*
X32635Y2523D01*
X32561Y2586D01*
X32491Y2654D01*
X32463Y2670D01*
X32448Y2683D01*
X32417Y2695D01*
X32344Y2735D01*
X30643Y3440D01*
X27570Y6513D01*
X25907Y10527D01*
X25907Y14873D01*
X27570Y18887D01*
X30643Y21960D01*
X34657Y23623D01*
X39003Y23623D01*
X43017Y21960D01*
X46090Y18887D01*
X47557Y15346D01*
X47608Y15263D01*
X47654Y15177D01*
X47673Y15159D01*
X47686Y15137D01*
X47761Y15075D01*
X47832Y15008D01*
X47856Y14997D01*
X47876Y14980D01*
X47967Y14945D01*
X48055Y14904D01*
X48081Y14901D01*
X48105Y14892D01*
X48203Y14888D01*
X48299Y14877D01*
X48325Y14883D01*
X48351Y14881D01*
X48445Y14909D01*
X48540Y14929D01*
X48562Y14943D01*
X48587Y14950D01*
X48667Y15006D01*
X48751Y15055D01*
X48768Y15075D01*
X48789Y15090D01*
X48848Y15168D01*
X48911Y15242D01*
X48921Y15267D01*
X48936Y15288D01*
X48966Y15380D01*
X49003Y15471D01*
X49006Y15503D01*
X49012Y15522D01*
X49012Y15555D01*
X49021Y15637D01*
X49021Y29030D01*
X49010Y29100D01*
X49008Y29172D01*
X48990Y29221D01*
X48982Y29272D01*
X48948Y29335D01*
X48923Y29403D01*
X48891Y29444D01*
X48866Y29490D01*
X48815Y29539D01*
X48770Y29595D01*
X48726Y29623D01*
X48688Y29659D01*
X48623Y29689D01*
X48563Y29728D01*
X48512Y29741D01*
X48465Y29763D01*
X48394Y29771D01*
X48324Y29788D01*
X48272Y29784D01*
X48221Y29790D01*
X48150Y29774D01*
X48079Y29769D01*
X48031Y29749D01*
X47980Y29737D01*
X47919Y29701D01*
X47853Y29673D01*
X47797Y29628D01*
X47769Y29611D01*
X47754Y29594D01*
X47722Y29568D01*
X47148Y28994D01*
X45627Y27889D01*
X43953Y27036D01*
X42166Y26455D01*
X40893Y26254D01*
X40893Y37338D01*
X40890Y37358D01*
X40892Y37377D01*
X40870Y37479D01*
X40853Y37581D01*
X40844Y37598D01*
X40840Y37618D01*
X40787Y37707D01*
X40738Y37798D01*
X40724Y37812D01*
X40714Y37829D01*
X40635Y37896D01*
X40560Y37967D01*
X40542Y37976D01*
X40527Y37989D01*
X40431Y38027D01*
X40337Y38071D01*
X40317Y38073D01*
X40299Y38081D01*
X40132Y38099D01*
X39369Y38099D01*
X39369Y38101D01*
X40132Y38101D01*
X40152Y38104D01*
X40171Y38102D01*
X40273Y38124D01*
X40375Y38141D01*
X40392Y38150D01*
X40412Y38154D01*
X40501Y38207D01*
X40592Y38256D01*
X40606Y38270D01*
X40623Y38280D01*
X40690Y38359D01*
X40761Y38434D01*
X40770Y38452D01*
X40783Y38467D01*
X40822Y38563D01*
X40865Y38657D01*
X40867Y38677D01*
X40875Y38695D01*
X40893Y38862D01*
X40893Y49946D01*
X42166Y49745D01*
X43953Y49164D01*
X45627Y48311D01*
X47148Y47206D01*
X47722Y46632D01*
X47780Y46590D01*
X47832Y46541D01*
X47879Y46519D01*
X47921Y46489D01*
X47990Y46468D01*
X48055Y46437D01*
X48107Y46432D01*
X48157Y46416D01*
X48228Y46418D01*
X48299Y46410D01*
X48350Y46421D01*
X48402Y46423D01*
X48470Y46447D01*
X48540Y46463D01*
X48584Y46489D01*
X48633Y46507D01*
X48689Y46552D01*
X48751Y46589D01*
X48785Y46628D01*
X48825Y46661D01*
X48864Y46721D01*
X48911Y46776D01*
X48930Y46824D01*
X48958Y46868D01*
X48976Y46937D01*
X49003Y47004D01*
X49011Y47075D01*
X49019Y47106D01*
X49017Y47130D01*
X49021Y47170D01*
X49021Y57959D01*
X49010Y58025D01*
X49009Y58093D01*
X48991Y58146D01*
X48982Y58201D01*
X48950Y58261D01*
X48927Y58325D01*
X48893Y58369D01*
X48866Y58419D01*
X48817Y58465D01*
X48776Y58519D01*
X48729Y58549D01*
X48688Y58588D01*
X48627Y58617D01*
X48570Y58654D01*
X48516Y58668D01*
X48465Y58692D01*
X48398Y58699D01*
X48332Y58716D01*
X48276Y58713D01*
X48221Y58719D01*
X48154Y58704D01*
X48087Y58700D01*
X48035Y58678D01*
X47980Y58666D01*
X47922Y58632D01*
X47859Y58606D01*
X47817Y58569D01*
X47769Y58540D01*
X47725Y58489D01*
X47674Y58444D01*
X47631Y58378D01*
X47609Y58353D01*
X47601Y58334D01*
X47582Y58304D01*
X47041Y57243D01*
X45936Y55722D01*
X44608Y54394D01*
X43087Y53289D01*
X41413Y52436D01*
X39626Y51855D01*
X38353Y51654D01*
X38353Y62738D01*
X38350Y62758D01*
X38352Y62777D01*
X38330Y62879D01*
X38313Y62981D01*
X38304Y62998D01*
X38300Y63018D01*
X38247Y63107D01*
X38198Y63198D01*
X38184Y63212D01*
X38174Y63229D01*
X38095Y63296D01*
X38020Y63367D01*
X38002Y63376D01*
X37987Y63389D01*
X37891Y63427D01*
X37797Y63471D01*
X37777Y63473D01*
X37759Y63481D01*
X37592Y63499D01*
X36829Y63499D01*
X36829Y63501D01*
X37592Y63501D01*
X37612Y63504D01*
X37631Y63502D01*
X37733Y63524D01*
X37835Y63541D01*
X37852Y63550D01*
X37872Y63554D01*
X37961Y63607D01*
X38052Y63656D01*
X38066Y63670D01*
X38083Y63680D01*
X38150Y63759D01*
X38221Y63834D01*
X38230Y63852D01*
X38243Y63867D01*
X38282Y63963D01*
X38325Y64057D01*
X38327Y64077D01*
X38335Y64095D01*
X38353Y64262D01*
X38353Y75346D01*
X39626Y75145D01*
X41413Y74564D01*
X43087Y73711D01*
X44608Y72606D01*
X45936Y71278D01*
X47041Y69757D01*
X47582Y68696D01*
X47622Y68641D01*
X47654Y68581D01*
X47694Y68543D01*
X47727Y68498D01*
X47783Y68459D01*
X47832Y68412D01*
X47883Y68388D01*
X47929Y68356D01*
X47994Y68337D01*
X48055Y68308D01*
X48111Y68302D01*
X48164Y68286D01*
X48232Y68289D01*
X48299Y68281D01*
X48354Y68293D01*
X48410Y68295D01*
X48473Y68319D01*
X48540Y68334D01*
X48588Y68362D01*
X48640Y68382D01*
X48693Y68425D01*
X48751Y68460D01*
X48787Y68502D01*
X48831Y68538D01*
X48867Y68595D01*
X48911Y68647D01*
X48932Y68699D01*
X48962Y68746D01*
X48977Y68812D01*
X49003Y68875D01*
X49011Y68953D01*
X49019Y68985D01*
X49017Y69006D01*
X49021Y69041D01*
X49021Y81266D01*
X49010Y81337D01*
X49008Y81409D01*
X48990Y81458D01*
X48982Y81509D01*
X48948Y81572D01*
X48923Y81640D01*
X48891Y81681D01*
X48866Y81726D01*
X48815Y81776D01*
X48770Y81832D01*
X48726Y81860D01*
X48688Y81896D01*
X48623Y81926D01*
X48563Y81965D01*
X48512Y81978D01*
X48465Y81999D01*
X48394Y82007D01*
X48324Y82025D01*
X48272Y82021D01*
X48221Y82027D01*
X48150Y82011D01*
X48079Y82006D01*
X48031Y81985D01*
X47980Y81974D01*
X47919Y81937D01*
X47853Y81909D01*
X47797Y81865D01*
X47769Y81848D01*
X47754Y81830D01*
X47722Y81805D01*
X45557Y79640D01*
X41543Y77977D01*
X37197Y77977D01*
X33183Y79640D01*
X30110Y82713D01*
X28447Y86727D01*
X28447Y91073D01*
X30110Y95087D01*
X33183Y98160D01*
X34885Y98865D01*
X34968Y98916D01*
X35053Y98962D01*
X35071Y98980D01*
X35094Y98994D01*
X35156Y99070D01*
X35223Y99140D01*
X35234Y99164D01*
X35250Y99184D01*
X35285Y99275D01*
X35326Y99363D01*
X35329Y99389D01*
X35339Y99413D01*
X35343Y99511D01*
X35353Y99607D01*
X35348Y99633D01*
X35349Y99659D01*
X35322Y99753D01*
X35301Y99848D01*
X35288Y99870D01*
X35280Y99895D01*
X35225Y99975D01*
X35175Y100059D01*
X35155Y100076D01*
X35140Y100097D01*
X35062Y100156D01*
X34988Y100219D01*
X34964Y100229D01*
X34943Y100244D01*
X34850Y100274D01*
X34760Y100311D01*
X34727Y100314D01*
X34709Y100320D01*
X34676Y100320D01*
X34593Y100329D01*
X12700Y100329D01*
X12674Y100325D01*
X12625Y100326D01*
X10544Y100121D01*
X10517Y100113D01*
X10489Y100113D01*
X10327Y100066D01*
X6482Y98473D01*
X6426Y98439D01*
X6366Y98413D01*
X6301Y98361D01*
X6273Y98344D01*
X6260Y98329D01*
X6235Y98308D01*
X3292Y95365D01*
X3253Y95312D01*
X3207Y95265D01*
X3167Y95192D01*
X3148Y95165D01*
X3142Y95147D01*
X3127Y95118D01*
X1534Y91273D01*
X1527Y91245D01*
X1514Y91220D01*
X1479Y91056D01*
X1274Y88975D01*
X1276Y88948D01*
X1271Y88900D01*
X1271Y12700D01*
X1275Y12674D01*
X1275Y12669D01*
X1273Y12650D01*
X1275Y12642D01*
X1274Y12625D01*
X1479Y10544D01*
X1487Y10517D01*
X1487Y10489D01*
X1534Y10327D01*
X3127Y6482D01*
X3161Y6426D01*
X3187Y6366D01*
X3239Y6301D01*
X3256Y6273D01*
X3271Y6260D01*
X3292Y6235D01*
X6235Y3292D01*
X6288Y3253D01*
X6335Y3207D01*
X6408Y3167D01*
X6435Y3148D01*
X6453Y3142D01*
X6482Y3127D01*
X10327Y1534D01*
X10355Y1527D01*
X10380Y1514D01*
X10544Y1479D01*
X12625Y1274D01*
X12652Y1276D01*
X12700Y1271D01*
X32053Y1271D01*
X32149Y1286D01*
G37*
G36*
X88926Y1275D02*
X88926Y1275D01*
X88975Y1274D01*
X91056Y1479D01*
X91083Y1487D01*
X91111Y1487D01*
X91273Y1534D01*
X95118Y3127D01*
X95174Y3161D01*
X95234Y3187D01*
X95299Y3239D01*
X95327Y3256D01*
X95340Y3271D01*
X95365Y3292D01*
X98308Y6235D01*
X98347Y6288D01*
X98393Y6335D01*
X98433Y6408D01*
X98452Y6435D01*
X98458Y6453D01*
X98473Y6482D01*
X100066Y10327D01*
X100073Y10355D01*
X100086Y10380D01*
X100121Y10544D01*
X100326Y12625D01*
X100324Y12652D01*
X100329Y12700D01*
X100329Y88900D01*
X100325Y88926D01*
X100326Y88975D01*
X100121Y91056D01*
X100113Y91083D01*
X100113Y91111D01*
X100066Y91273D01*
X98473Y95118D01*
X98439Y95174D01*
X98413Y95234D01*
X98361Y95299D01*
X98344Y95327D01*
X98329Y95340D01*
X98308Y95365D01*
X95365Y98308D01*
X95312Y98347D01*
X95265Y98393D01*
X95192Y98433D01*
X95165Y98452D01*
X95147Y98458D01*
X95118Y98473D01*
X91273Y100066D01*
X91245Y100073D01*
X91220Y100086D01*
X91056Y100121D01*
X88975Y100326D01*
X88948Y100324D01*
X88900Y100329D01*
X71693Y100329D01*
X71685Y100328D01*
X71677Y100329D01*
X71564Y100308D01*
X71450Y100290D01*
X71443Y100286D01*
X71436Y100284D01*
X71334Y100228D01*
X71233Y100174D01*
X71228Y100169D01*
X71221Y100165D01*
X71143Y100079D01*
X71064Y99996D01*
X71060Y99989D01*
X71055Y99983D01*
X71009Y99877D01*
X70960Y99773D01*
X70959Y99765D01*
X70956Y99758D01*
X70946Y99643D01*
X70933Y99529D01*
X70935Y99521D01*
X70934Y99513D01*
X70961Y99401D01*
X70985Y99288D01*
X70989Y99281D01*
X70991Y99274D01*
X71052Y99176D01*
X71111Y99077D01*
X71118Y99072D01*
X71122Y99065D01*
X71246Y98952D01*
X72548Y98006D01*
X73876Y96678D01*
X74981Y95157D01*
X75834Y93483D01*
X76415Y91696D01*
X76616Y90423D01*
X65532Y90423D01*
X65512Y90420D01*
X65493Y90422D01*
X65391Y90400D01*
X65289Y90383D01*
X65272Y90374D01*
X65252Y90370D01*
X65163Y90317D01*
X65072Y90268D01*
X65058Y90254D01*
X65041Y90244D01*
X64974Y90165D01*
X64903Y90090D01*
X64894Y90072D01*
X64881Y90057D01*
X64843Y89961D01*
X64799Y89867D01*
X64797Y89847D01*
X64789Y89829D01*
X64771Y89662D01*
X64771Y88899D01*
X64008Y88899D01*
X63988Y88896D01*
X63969Y88898D01*
X63867Y88876D01*
X63765Y88859D01*
X63748Y88850D01*
X63728Y88846D01*
X63639Y88793D01*
X63548Y88744D01*
X63534Y88730D01*
X63517Y88720D01*
X63450Y88641D01*
X63379Y88566D01*
X63370Y88548D01*
X63357Y88533D01*
X63318Y88437D01*
X63275Y88343D01*
X63273Y88323D01*
X63265Y88305D01*
X63247Y88138D01*
X63247Y77054D01*
X61974Y77255D01*
X60187Y77836D01*
X58513Y78689D01*
X56992Y79794D01*
X55664Y81122D01*
X54559Y82643D01*
X54018Y83704D01*
X53978Y83759D01*
X53946Y83819D01*
X53906Y83857D01*
X53873Y83902D01*
X53817Y83941D01*
X53768Y83988D01*
X53717Y84012D01*
X53671Y84044D01*
X53607Y84063D01*
X53545Y84092D01*
X53489Y84098D01*
X53436Y84114D01*
X53368Y84111D01*
X53301Y84119D01*
X53246Y84107D01*
X53190Y84105D01*
X53127Y84081D01*
X53060Y84066D01*
X53012Y84038D01*
X52960Y84018D01*
X52907Y83975D01*
X52849Y83940D01*
X52813Y83898D01*
X52769Y83862D01*
X52733Y83805D01*
X52689Y83753D01*
X52668Y83701D01*
X52638Y83654D01*
X52623Y83588D01*
X52597Y83525D01*
X52589Y83447D01*
X52581Y83415D01*
X52583Y83394D01*
X52579Y83359D01*
X52579Y71134D01*
X52590Y71063D01*
X52592Y70991D01*
X52610Y70942D01*
X52619Y70891D01*
X52652Y70828D01*
X52677Y70760D01*
X52709Y70720D01*
X52734Y70674D01*
X52786Y70624D01*
X52830Y70568D01*
X52874Y70540D01*
X52912Y70504D01*
X52977Y70474D01*
X53037Y70435D01*
X53088Y70422D01*
X53135Y70401D01*
X53206Y70393D01*
X53276Y70375D01*
X53328Y70379D01*
X53379Y70373D01*
X53450Y70389D01*
X53521Y70394D01*
X53569Y70415D01*
X53620Y70426D01*
X53681Y70462D01*
X53747Y70491D01*
X53803Y70535D01*
X53831Y70552D01*
X53846Y70570D01*
X53878Y70595D01*
X56043Y72760D01*
X60057Y74423D01*
X64403Y74423D01*
X68417Y72760D01*
X71490Y69687D01*
X73153Y65673D01*
X73153Y61327D01*
X71490Y57313D01*
X68417Y54240D01*
X64403Y52577D01*
X60057Y52577D01*
X56043Y54240D01*
X53878Y56405D01*
X53820Y56446D01*
X53768Y56496D01*
X53721Y56518D01*
X53679Y56548D01*
X53610Y56569D01*
X53545Y56599D01*
X53493Y56605D01*
X53443Y56621D01*
X53372Y56619D01*
X53301Y56627D01*
X53250Y56616D01*
X53198Y56614D01*
X53130Y56590D01*
X53060Y56574D01*
X53016Y56548D01*
X52967Y56530D01*
X52911Y56485D01*
X52849Y56448D01*
X52815Y56409D01*
X52775Y56376D01*
X52736Y56316D01*
X52689Y56261D01*
X52670Y56213D01*
X52642Y56169D01*
X52624Y56100D01*
X52597Y56033D01*
X52589Y55962D01*
X52581Y55931D01*
X52583Y55907D01*
X52579Y55866D01*
X52579Y41037D01*
X52594Y40941D01*
X52604Y40844D01*
X52614Y40820D01*
X52619Y40794D01*
X52664Y40709D01*
X52704Y40619D01*
X52721Y40600D01*
X52734Y40577D01*
X52804Y40510D01*
X52870Y40438D01*
X52893Y40426D01*
X52912Y40408D01*
X53000Y40367D01*
X53086Y40320D01*
X53111Y40315D01*
X53135Y40304D01*
X53232Y40293D01*
X53328Y40276D01*
X53354Y40280D01*
X53379Y40277D01*
X53475Y40298D01*
X53571Y40312D01*
X53594Y40324D01*
X53620Y40329D01*
X53703Y40379D01*
X53790Y40423D01*
X53809Y40442D01*
X53831Y40455D01*
X53894Y40529D01*
X53962Y40599D01*
X53978Y40628D01*
X53991Y40642D01*
X54003Y40673D01*
X54043Y40746D01*
X55510Y44287D01*
X58583Y47360D01*
X62597Y49023D01*
X66943Y49023D01*
X70957Y47360D01*
X74030Y44287D01*
X75693Y40273D01*
X75693Y35927D01*
X74030Y31913D01*
X70957Y28840D01*
X66943Y27177D01*
X62597Y27177D01*
X58583Y28840D01*
X55510Y31913D01*
X54043Y35454D01*
X53992Y35537D01*
X53946Y35623D01*
X53928Y35641D01*
X53914Y35663D01*
X53839Y35725D01*
X53768Y35792D01*
X53744Y35803D01*
X53724Y35820D01*
X53633Y35855D01*
X53545Y35896D01*
X53519Y35899D01*
X53495Y35908D01*
X53397Y35912D01*
X53301Y35923D01*
X53275Y35917D01*
X53249Y35919D01*
X53155Y35891D01*
X53060Y35871D01*
X53038Y35857D01*
X53013Y35850D01*
X52933Y35795D01*
X52849Y35745D01*
X52832Y35725D01*
X52811Y35710D01*
X52752Y35632D01*
X52689Y35558D01*
X52679Y35533D01*
X52664Y35512D01*
X52634Y35420D01*
X52597Y35329D01*
X52594Y35297D01*
X52588Y35279D01*
X52588Y35245D01*
X52579Y35163D01*
X52579Y21770D01*
X52590Y21700D01*
X52592Y21628D01*
X52610Y21579D01*
X52619Y21528D01*
X52652Y21464D01*
X52677Y21397D01*
X52709Y21356D01*
X52734Y21310D01*
X52786Y21261D01*
X52830Y21205D01*
X52874Y21177D01*
X52912Y21141D01*
X52977Y21111D01*
X53037Y21072D01*
X53088Y21059D01*
X53135Y21037D01*
X53206Y21029D01*
X53276Y21012D01*
X53328Y21016D01*
X53379Y21010D01*
X53450Y21026D01*
X53521Y21031D01*
X53569Y21051D01*
X53620Y21063D01*
X53681Y21099D01*
X53747Y21127D01*
X53803Y21172D01*
X53831Y21189D01*
X53846Y21206D01*
X53878Y21232D01*
X54452Y21806D01*
X55973Y22911D01*
X57647Y23764D01*
X59434Y24345D01*
X60707Y24546D01*
X60707Y13462D01*
X60710Y13442D01*
X60708Y13423D01*
X60730Y13321D01*
X60747Y13219D01*
X60756Y13202D01*
X60760Y13182D01*
X60813Y13093D01*
X60862Y13002D01*
X60876Y12988D01*
X60886Y12971D01*
X60965Y12904D01*
X61040Y12833D01*
X61058Y12824D01*
X61073Y12811D01*
X61169Y12773D01*
X61263Y12729D01*
X61283Y12727D01*
X61301Y12719D01*
X61468Y12701D01*
X62231Y12701D01*
X62231Y11938D01*
X62234Y11918D01*
X62232Y11899D01*
X62254Y11797D01*
X62271Y11695D01*
X62280Y11678D01*
X62284Y11658D01*
X62337Y11569D01*
X62386Y11478D01*
X62400Y11464D01*
X62410Y11447D01*
X62489Y11380D01*
X62564Y11309D01*
X62582Y11300D01*
X62597Y11287D01*
X62693Y11248D01*
X62787Y11205D01*
X62807Y11203D01*
X62825Y11195D01*
X62992Y11177D01*
X74076Y11177D01*
X73875Y9904D01*
X73294Y8117D01*
X72441Y6443D01*
X71336Y4922D01*
X70008Y3594D01*
X68706Y2648D01*
X68700Y2642D01*
X68693Y2638D01*
X68614Y2555D01*
X68533Y2473D01*
X68529Y2466D01*
X68524Y2460D01*
X68475Y2356D01*
X68425Y2252D01*
X68423Y2244D01*
X68420Y2237D01*
X68407Y2123D01*
X68392Y2008D01*
X68394Y2000D01*
X68393Y1993D01*
X68417Y1880D01*
X68440Y1767D01*
X68444Y1760D01*
X68445Y1752D01*
X68504Y1654D01*
X68561Y1553D01*
X68567Y1548D01*
X68571Y1541D01*
X68659Y1466D01*
X68745Y1389D01*
X68752Y1386D01*
X68758Y1381D01*
X68866Y1338D01*
X68971Y1293D01*
X68979Y1292D01*
X68987Y1289D01*
X69153Y1271D01*
X88900Y1271D01*
X88926Y1275D01*
G37*
%LPC*%
G36*
X63753Y14223D02*
X63753Y14223D01*
X63753Y24546D01*
X65026Y24345D01*
X66813Y23764D01*
X68487Y22911D01*
X70008Y21806D01*
X71336Y20478D01*
X72441Y18957D01*
X73294Y17283D01*
X73875Y15496D01*
X74076Y14223D01*
X63753Y14223D01*
G37*
%LPD*%
%LPC*%
G36*
X66293Y87377D02*
X66293Y87377D01*
X76616Y87377D01*
X76415Y86104D01*
X75834Y84317D01*
X74981Y82643D01*
X73876Y81122D01*
X72548Y79794D01*
X71027Y78689D01*
X69353Y77836D01*
X67566Y77255D01*
X66293Y77054D01*
X66293Y87377D01*
G37*
%LPD*%
%LPC*%
G36*
X24984Y65023D02*
X24984Y65023D01*
X25185Y66296D01*
X25766Y68083D01*
X26619Y69757D01*
X27724Y71278D01*
X29052Y72606D01*
X30573Y73711D01*
X32247Y74564D01*
X34034Y75145D01*
X35307Y75346D01*
X35307Y65023D01*
X24984Y65023D01*
G37*
%LPD*%
%LPC*%
G36*
X27524Y39623D02*
X27524Y39623D01*
X27725Y40896D01*
X28306Y42683D01*
X29159Y44357D01*
X30264Y45878D01*
X31592Y47206D01*
X33113Y48311D01*
X34787Y49164D01*
X36574Y49745D01*
X37847Y49946D01*
X37847Y39623D01*
X27524Y39623D01*
G37*
%LPD*%
%LPC*%
G36*
X34034Y51855D02*
X34034Y51855D01*
X32247Y52436D01*
X30573Y53289D01*
X29052Y54394D01*
X27724Y55722D01*
X26619Y57243D01*
X25766Y58917D01*
X25185Y60704D01*
X24984Y61977D01*
X35307Y61977D01*
X35307Y51654D01*
X34034Y51855D01*
G37*
%LPD*%
%LPC*%
G36*
X36574Y26455D02*
X36574Y26455D01*
X34787Y27036D01*
X33113Y27889D01*
X31592Y28994D01*
X30264Y30322D01*
X29159Y31843D01*
X28306Y33517D01*
X27725Y35304D01*
X27524Y36577D01*
X37847Y36577D01*
X37847Y26254D01*
X36574Y26455D01*
G37*
%LPD*%
D10*
X36830Y12700D03*
X39370Y38100D03*
X36830Y63500D03*
X39370Y88900D03*
X62230Y12700D03*
X64770Y38100D03*
X62230Y63500D03*
X64770Y88900D03*
M02*
