G04 EAGLE Gerber X2 export*
G75*
%MOMM*%
%FSLAX34Y34*%
%LPD*%
%AMOC8*
5,1,8,0,0,1.08239X$1,22.5*%
G01*
%ADD10C,1.879600*%

G36*
X88926Y1275D02*
X88926Y1275D01*
X88975Y1274D01*
X91056Y1479D01*
X91083Y1487D01*
X91111Y1487D01*
X91273Y1534D01*
X95118Y3127D01*
X95174Y3161D01*
X95234Y3187D01*
X95299Y3239D01*
X95327Y3256D01*
X95340Y3271D01*
X95365Y3292D01*
X98308Y6235D01*
X98347Y6288D01*
X98393Y6335D01*
X98433Y6408D01*
X98452Y6435D01*
X98458Y6453D01*
X98473Y6482D01*
X100066Y10327D01*
X100073Y10355D01*
X100086Y10380D01*
X100121Y10544D01*
X100326Y12625D01*
X100324Y12652D01*
X100329Y12700D01*
X100329Y88900D01*
X100325Y88926D01*
X100326Y88975D01*
X100121Y91056D01*
X100113Y91083D01*
X100113Y91111D01*
X100066Y91273D01*
X98473Y95118D01*
X98439Y95174D01*
X98413Y95234D01*
X98361Y95299D01*
X98344Y95327D01*
X98329Y95340D01*
X98308Y95365D01*
X95365Y98308D01*
X95312Y98347D01*
X95265Y98393D01*
X95192Y98433D01*
X95165Y98452D01*
X95147Y98458D01*
X95118Y98473D01*
X91273Y100066D01*
X91245Y100073D01*
X91220Y100086D01*
X91056Y100121D01*
X88975Y100326D01*
X88948Y100324D01*
X88900Y100329D01*
X69547Y100329D01*
X69451Y100314D01*
X69354Y100304D01*
X69330Y100294D01*
X69304Y100290D01*
X69218Y100244D01*
X69129Y100204D01*
X69110Y100187D01*
X69087Y100174D01*
X69020Y100104D01*
X68948Y100038D01*
X68935Y100015D01*
X68917Y99996D01*
X68876Y99908D01*
X68829Y99822D01*
X68825Y99797D01*
X68814Y99773D01*
X68803Y99676D01*
X68786Y99580D01*
X68789Y99554D01*
X68787Y99529D01*
X68807Y99433D01*
X68821Y99337D01*
X68833Y99314D01*
X68839Y99288D01*
X68889Y99205D01*
X68933Y99118D01*
X68952Y99099D01*
X68965Y99077D01*
X69039Y99014D01*
X69109Y98946D01*
X69137Y98930D01*
X69152Y98917D01*
X69183Y98905D01*
X69255Y98865D01*
X70957Y98160D01*
X74030Y95087D01*
X75693Y91073D01*
X75693Y86727D01*
X74030Y82713D01*
X70957Y79640D01*
X66943Y77977D01*
X62597Y77977D01*
X58583Y79640D01*
X55510Y82713D01*
X54043Y86254D01*
X53992Y86337D01*
X53946Y86423D01*
X53928Y86441D01*
X53914Y86463D01*
X53839Y86525D01*
X53768Y86592D01*
X53744Y86603D01*
X53724Y86620D01*
X53633Y86655D01*
X53545Y86696D01*
X53519Y86699D01*
X53495Y86708D01*
X53397Y86712D01*
X53301Y86723D01*
X53275Y86717D01*
X53249Y86719D01*
X53155Y86691D01*
X53060Y86671D01*
X53038Y86657D01*
X53013Y86650D01*
X52933Y86595D01*
X52849Y86545D01*
X52832Y86525D01*
X52811Y86510D01*
X52752Y86432D01*
X52689Y86358D01*
X52679Y86333D01*
X52664Y86312D01*
X52634Y86220D01*
X52597Y86129D01*
X52594Y86097D01*
X52588Y86079D01*
X52588Y86045D01*
X52579Y85963D01*
X52579Y72570D01*
X52590Y72500D01*
X52592Y72428D01*
X52610Y72379D01*
X52619Y72328D01*
X52652Y72264D01*
X52677Y72197D01*
X52709Y72156D01*
X52734Y72110D01*
X52786Y72061D01*
X52830Y72005D01*
X52874Y71977D01*
X52912Y71941D01*
X52977Y71911D01*
X53037Y71872D01*
X53088Y71859D01*
X53135Y71837D01*
X53206Y71829D01*
X53276Y71812D01*
X53328Y71816D01*
X53379Y71810D01*
X53450Y71826D01*
X53521Y71831D01*
X53569Y71851D01*
X53620Y71863D01*
X53681Y71899D01*
X53747Y71927D01*
X53803Y71972D01*
X53831Y71989D01*
X53846Y72006D01*
X53878Y72032D01*
X54452Y72606D01*
X55973Y73711D01*
X57647Y74564D01*
X59434Y75145D01*
X60707Y75346D01*
X60707Y64262D01*
X60710Y64242D01*
X60708Y64223D01*
X60730Y64121D01*
X60747Y64019D01*
X60756Y64002D01*
X60760Y63982D01*
X60813Y63893D01*
X60862Y63802D01*
X60876Y63788D01*
X60886Y63771D01*
X60965Y63704D01*
X61040Y63633D01*
X61058Y63624D01*
X61073Y63611D01*
X61169Y63573D01*
X61263Y63529D01*
X61283Y63527D01*
X61301Y63519D01*
X61468Y63501D01*
X62231Y63501D01*
X62231Y63499D01*
X61468Y63499D01*
X61448Y63496D01*
X61429Y63498D01*
X61327Y63476D01*
X61225Y63459D01*
X61208Y63450D01*
X61188Y63446D01*
X61099Y63393D01*
X61008Y63344D01*
X60994Y63330D01*
X60977Y63320D01*
X60910Y63241D01*
X60839Y63166D01*
X60830Y63148D01*
X60817Y63133D01*
X60778Y63037D01*
X60735Y62943D01*
X60733Y62923D01*
X60725Y62905D01*
X60707Y62738D01*
X60707Y51654D01*
X59434Y51855D01*
X57647Y52436D01*
X55973Y53289D01*
X54452Y54394D01*
X53878Y54968D01*
X53820Y55010D01*
X53768Y55059D01*
X53721Y55081D01*
X53679Y55111D01*
X53610Y55132D01*
X53545Y55163D01*
X53493Y55168D01*
X53443Y55184D01*
X53372Y55182D01*
X53301Y55190D01*
X53250Y55179D01*
X53198Y55177D01*
X53130Y55153D01*
X53060Y55137D01*
X53015Y55111D01*
X52967Y55093D01*
X52911Y55048D01*
X52849Y55011D01*
X52815Y54972D01*
X52775Y54939D01*
X52736Y54879D01*
X52689Y54824D01*
X52670Y54776D01*
X52642Y54732D01*
X52624Y54663D01*
X52597Y54596D01*
X52589Y54525D01*
X52581Y54494D01*
X52583Y54470D01*
X52579Y54430D01*
X52579Y43641D01*
X52590Y43575D01*
X52591Y43507D01*
X52609Y43454D01*
X52619Y43399D01*
X52650Y43339D01*
X52673Y43275D01*
X52707Y43231D01*
X52734Y43181D01*
X52783Y43135D01*
X52825Y43081D01*
X52871Y43051D01*
X52912Y43012D01*
X52974Y42983D01*
X53030Y42946D01*
X53084Y42932D01*
X53135Y42908D01*
X53202Y42901D01*
X53268Y42884D01*
X53324Y42887D01*
X53379Y42881D01*
X53446Y42896D01*
X53513Y42900D01*
X53565Y42922D01*
X53620Y42934D01*
X53678Y42968D01*
X53741Y42994D01*
X53783Y43031D01*
X53831Y43060D01*
X53875Y43111D01*
X53926Y43156D01*
X53969Y43222D01*
X53991Y43247D01*
X53999Y43266D01*
X54018Y43296D01*
X54559Y44357D01*
X55664Y45878D01*
X56992Y47206D01*
X58513Y48311D01*
X60187Y49164D01*
X61974Y49745D01*
X63247Y49946D01*
X63247Y38862D01*
X63250Y38842D01*
X63248Y38823D01*
X63270Y38721D01*
X63287Y38619D01*
X63296Y38602D01*
X63300Y38582D01*
X63353Y38493D01*
X63402Y38402D01*
X63416Y38388D01*
X63426Y38371D01*
X63505Y38304D01*
X63580Y38233D01*
X63598Y38224D01*
X63613Y38211D01*
X63709Y38173D01*
X63803Y38129D01*
X63823Y38127D01*
X63841Y38119D01*
X64008Y38101D01*
X64771Y38101D01*
X64771Y38099D01*
X64008Y38099D01*
X63988Y38096D01*
X63969Y38098D01*
X63867Y38076D01*
X63765Y38059D01*
X63748Y38050D01*
X63728Y38046D01*
X63639Y37993D01*
X63548Y37944D01*
X63534Y37930D01*
X63517Y37920D01*
X63450Y37841D01*
X63379Y37766D01*
X63370Y37748D01*
X63357Y37733D01*
X63318Y37637D01*
X63275Y37543D01*
X63273Y37523D01*
X63265Y37505D01*
X63247Y37338D01*
X63247Y26254D01*
X61974Y26455D01*
X60187Y27036D01*
X58513Y27889D01*
X56992Y28994D01*
X55664Y30322D01*
X54559Y31843D01*
X54018Y32904D01*
X53978Y32959D01*
X53946Y33019D01*
X53906Y33057D01*
X53873Y33102D01*
X53817Y33141D01*
X53768Y33188D01*
X53717Y33212D01*
X53671Y33244D01*
X53607Y33263D01*
X53545Y33292D01*
X53489Y33298D01*
X53436Y33314D01*
X53368Y33311D01*
X53301Y33319D01*
X53246Y33307D01*
X53190Y33305D01*
X53127Y33281D01*
X53060Y33266D01*
X53012Y33238D01*
X52960Y33218D01*
X52907Y33175D01*
X52849Y33140D01*
X52813Y33098D01*
X52769Y33062D01*
X52733Y33005D01*
X52689Y32953D01*
X52668Y32901D01*
X52638Y32854D01*
X52623Y32788D01*
X52597Y32725D01*
X52589Y32647D01*
X52581Y32615D01*
X52583Y32594D01*
X52579Y32559D01*
X52579Y20334D01*
X52590Y20263D01*
X52592Y20191D01*
X52610Y20142D01*
X52619Y20091D01*
X52652Y20028D01*
X52677Y19960D01*
X52709Y19920D01*
X52734Y19874D01*
X52786Y19824D01*
X52830Y19768D01*
X52874Y19740D01*
X52912Y19704D01*
X52977Y19674D01*
X53037Y19635D01*
X53088Y19622D01*
X53135Y19601D01*
X53206Y19593D01*
X53276Y19575D01*
X53328Y19579D01*
X53379Y19573D01*
X53450Y19589D01*
X53521Y19594D01*
X53569Y19615D01*
X53620Y19626D01*
X53681Y19662D01*
X53747Y19691D01*
X53803Y19735D01*
X53831Y19752D01*
X53846Y19770D01*
X53878Y19795D01*
X56043Y21960D01*
X60057Y23623D01*
X64403Y23623D01*
X68417Y21960D01*
X71490Y18887D01*
X73153Y14873D01*
X73153Y10527D01*
X71490Y6513D01*
X68417Y3440D01*
X66716Y2735D01*
X66633Y2684D01*
X66547Y2638D01*
X66529Y2619D01*
X66506Y2606D01*
X66444Y2531D01*
X66377Y2460D01*
X66366Y2436D01*
X66350Y2416D01*
X66315Y2325D01*
X66274Y2237D01*
X66271Y2211D01*
X66261Y2187D01*
X66257Y2089D01*
X66247Y1993D01*
X66252Y1967D01*
X66251Y1941D01*
X66278Y1847D01*
X66299Y1752D01*
X66312Y1730D01*
X66320Y1705D01*
X66375Y1625D01*
X66425Y1541D01*
X66445Y1524D01*
X66460Y1503D01*
X66538Y1444D01*
X66612Y1381D01*
X66636Y1371D01*
X66657Y1356D01*
X66750Y1326D01*
X66840Y1289D01*
X66873Y1286D01*
X66891Y1280D01*
X66924Y1280D01*
X67007Y1271D01*
X88900Y1271D01*
X88926Y1275D01*
G37*
G36*
X29915Y1272D02*
X29915Y1272D01*
X29923Y1271D01*
X30036Y1292D01*
X30150Y1310D01*
X30157Y1314D01*
X30164Y1316D01*
X30266Y1372D01*
X30367Y1426D01*
X30372Y1431D01*
X30379Y1435D01*
X30457Y1521D01*
X30536Y1604D01*
X30540Y1611D01*
X30545Y1617D01*
X30591Y1723D01*
X30640Y1827D01*
X30641Y1835D01*
X30644Y1842D01*
X30654Y1957D01*
X30667Y2071D01*
X30665Y2079D01*
X30666Y2087D01*
X30639Y2199D01*
X30615Y2312D01*
X30611Y2319D01*
X30609Y2326D01*
X30548Y2424D01*
X30489Y2523D01*
X30482Y2528D01*
X30478Y2535D01*
X30354Y2648D01*
X29052Y3594D01*
X27724Y4922D01*
X26619Y6443D01*
X25766Y8117D01*
X25185Y9904D01*
X24984Y11177D01*
X36068Y11177D01*
X36088Y11180D01*
X36107Y11178D01*
X36209Y11200D01*
X36311Y11217D01*
X36328Y11226D01*
X36348Y11230D01*
X36437Y11283D01*
X36528Y11332D01*
X36542Y11346D01*
X36559Y11356D01*
X36626Y11435D01*
X36697Y11510D01*
X36706Y11528D01*
X36719Y11543D01*
X36757Y11639D01*
X36801Y11733D01*
X36803Y11753D01*
X36811Y11771D01*
X36829Y11938D01*
X36829Y12701D01*
X37592Y12701D01*
X37612Y12704D01*
X37631Y12702D01*
X37733Y12724D01*
X37835Y12741D01*
X37852Y12750D01*
X37872Y12754D01*
X37961Y12807D01*
X38052Y12856D01*
X38066Y12870D01*
X38083Y12880D01*
X38150Y12959D01*
X38221Y13034D01*
X38230Y13052D01*
X38243Y13067D01*
X38282Y13163D01*
X38325Y13257D01*
X38327Y13277D01*
X38335Y13295D01*
X38353Y13462D01*
X38353Y24546D01*
X39626Y24345D01*
X41413Y23764D01*
X43087Y22911D01*
X44608Y21806D01*
X45936Y20478D01*
X47041Y18957D01*
X47582Y17896D01*
X47622Y17841D01*
X47654Y17781D01*
X47694Y17743D01*
X47727Y17698D01*
X47783Y17659D01*
X47832Y17612D01*
X47883Y17588D01*
X47929Y17556D01*
X47994Y17537D01*
X48055Y17508D01*
X48111Y17502D01*
X48164Y17486D01*
X48232Y17489D01*
X48299Y17481D01*
X48354Y17493D01*
X48410Y17495D01*
X48473Y17519D01*
X48540Y17534D01*
X48588Y17562D01*
X48640Y17582D01*
X48693Y17625D01*
X48751Y17660D01*
X48787Y17702D01*
X48831Y17738D01*
X48867Y17795D01*
X48911Y17847D01*
X48932Y17899D01*
X48962Y17946D01*
X48977Y18012D01*
X49003Y18075D01*
X49011Y18153D01*
X49019Y18185D01*
X49017Y18206D01*
X49021Y18241D01*
X49021Y30466D01*
X49010Y30537D01*
X49008Y30609D01*
X48990Y30658D01*
X48982Y30709D01*
X48948Y30772D01*
X48923Y30840D01*
X48891Y30881D01*
X48866Y30926D01*
X48815Y30976D01*
X48770Y31032D01*
X48726Y31060D01*
X48688Y31096D01*
X48623Y31126D01*
X48563Y31165D01*
X48512Y31178D01*
X48465Y31199D01*
X48394Y31207D01*
X48324Y31225D01*
X48272Y31221D01*
X48221Y31227D01*
X48150Y31211D01*
X48079Y31206D01*
X48031Y31185D01*
X47980Y31174D01*
X47919Y31137D01*
X47853Y31109D01*
X47797Y31065D01*
X47769Y31048D01*
X47754Y31030D01*
X47722Y31005D01*
X45557Y28840D01*
X41543Y27177D01*
X37197Y27177D01*
X33183Y28840D01*
X30110Y31913D01*
X28447Y35927D01*
X28447Y40273D01*
X30110Y44287D01*
X33183Y47360D01*
X37197Y49023D01*
X41543Y49023D01*
X45557Y47360D01*
X47722Y45195D01*
X47780Y45154D01*
X47832Y45104D01*
X47879Y45082D01*
X47921Y45052D01*
X47990Y45031D01*
X48055Y45001D01*
X48107Y44995D01*
X48157Y44979D01*
X48228Y44981D01*
X48299Y44973D01*
X48350Y44984D01*
X48402Y44986D01*
X48470Y45010D01*
X48540Y45026D01*
X48584Y45052D01*
X48633Y45070D01*
X48689Y45115D01*
X48751Y45152D01*
X48785Y45191D01*
X48825Y45224D01*
X48864Y45284D01*
X48911Y45339D01*
X48930Y45387D01*
X48958Y45431D01*
X48976Y45500D01*
X49003Y45567D01*
X49011Y45638D01*
X49019Y45669D01*
X49017Y45693D01*
X49021Y45734D01*
X49021Y60563D01*
X49006Y60659D01*
X48996Y60756D01*
X48986Y60780D01*
X48982Y60806D01*
X48936Y60891D01*
X48896Y60981D01*
X48879Y61000D01*
X48866Y61023D01*
X48796Y61090D01*
X48730Y61162D01*
X48707Y61174D01*
X48688Y61192D01*
X48600Y61233D01*
X48514Y61280D01*
X48489Y61285D01*
X48465Y61296D01*
X48368Y61307D01*
X48272Y61324D01*
X48246Y61320D01*
X48221Y61323D01*
X48125Y61302D01*
X48029Y61288D01*
X48006Y61276D01*
X47980Y61271D01*
X47897Y61221D01*
X47810Y61177D01*
X47791Y61158D01*
X47769Y61145D01*
X47706Y61071D01*
X47638Y61001D01*
X47622Y60972D01*
X47609Y60958D01*
X47597Y60927D01*
X47557Y60854D01*
X46090Y57313D01*
X43017Y54240D01*
X39003Y52577D01*
X34657Y52577D01*
X30643Y54240D01*
X27570Y57313D01*
X25907Y61327D01*
X25907Y65673D01*
X27570Y69687D01*
X30643Y72760D01*
X34657Y74423D01*
X39003Y74423D01*
X43017Y72760D01*
X46090Y69687D01*
X47557Y66146D01*
X47608Y66063D01*
X47654Y65977D01*
X47673Y65959D01*
X47686Y65937D01*
X47761Y65875D01*
X47832Y65808D01*
X47856Y65797D01*
X47876Y65780D01*
X47967Y65745D01*
X48055Y65704D01*
X48081Y65701D01*
X48105Y65692D01*
X48203Y65688D01*
X48299Y65677D01*
X48325Y65683D01*
X48351Y65681D01*
X48445Y65709D01*
X48540Y65729D01*
X48562Y65743D01*
X48587Y65750D01*
X48667Y65805D01*
X48751Y65855D01*
X48768Y65875D01*
X48789Y65890D01*
X48848Y65968D01*
X48911Y66042D01*
X48921Y66067D01*
X48936Y66088D01*
X48966Y66180D01*
X49003Y66271D01*
X49006Y66303D01*
X49012Y66321D01*
X49012Y66355D01*
X49021Y66437D01*
X49021Y79830D01*
X49010Y79900D01*
X49008Y79972D01*
X48990Y80021D01*
X48982Y80072D01*
X48948Y80135D01*
X48923Y80203D01*
X48891Y80244D01*
X48866Y80290D01*
X48815Y80339D01*
X48770Y80395D01*
X48726Y80423D01*
X48688Y80459D01*
X48623Y80489D01*
X48563Y80528D01*
X48512Y80541D01*
X48465Y80563D01*
X48394Y80571D01*
X48324Y80588D01*
X48272Y80584D01*
X48221Y80590D01*
X48150Y80574D01*
X48079Y80569D01*
X48031Y80549D01*
X47980Y80537D01*
X47919Y80501D01*
X47853Y80473D01*
X47797Y80428D01*
X47769Y80411D01*
X47754Y80394D01*
X47722Y80368D01*
X47148Y79794D01*
X45627Y78689D01*
X43953Y77836D01*
X42166Y77255D01*
X40893Y77054D01*
X40893Y88138D01*
X40890Y88158D01*
X40892Y88177D01*
X40870Y88279D01*
X40853Y88381D01*
X40844Y88398D01*
X40840Y88418D01*
X40787Y88507D01*
X40738Y88598D01*
X40724Y88612D01*
X40714Y88629D01*
X40635Y88696D01*
X40560Y88767D01*
X40542Y88776D01*
X40527Y88789D01*
X40431Y88827D01*
X40337Y88871D01*
X40317Y88873D01*
X40299Y88881D01*
X40132Y88899D01*
X39369Y88899D01*
X39369Y89662D01*
X39366Y89682D01*
X39368Y89701D01*
X39346Y89803D01*
X39329Y89905D01*
X39320Y89922D01*
X39316Y89942D01*
X39263Y90031D01*
X39214Y90122D01*
X39200Y90136D01*
X39190Y90153D01*
X39111Y90220D01*
X39036Y90291D01*
X39018Y90300D01*
X39003Y90313D01*
X38907Y90352D01*
X38813Y90395D01*
X38793Y90397D01*
X38775Y90405D01*
X38608Y90423D01*
X27524Y90423D01*
X27725Y91696D01*
X28306Y93483D01*
X29159Y95157D01*
X30264Y96678D01*
X31592Y98006D01*
X32894Y98952D01*
X32900Y98958D01*
X32907Y98962D01*
X32986Y99045D01*
X33067Y99127D01*
X33071Y99134D01*
X33076Y99140D01*
X33125Y99244D01*
X33175Y99348D01*
X33177Y99356D01*
X33180Y99363D01*
X33193Y99477D01*
X33208Y99592D01*
X33206Y99600D01*
X33207Y99607D01*
X33183Y99720D01*
X33160Y99833D01*
X33156Y99840D01*
X33155Y99848D01*
X33096Y99946D01*
X33039Y100047D01*
X33033Y100052D01*
X33029Y100059D01*
X32941Y100134D01*
X32855Y100211D01*
X32848Y100214D01*
X32842Y100219D01*
X32734Y100262D01*
X32629Y100307D01*
X32621Y100308D01*
X32613Y100311D01*
X32447Y100329D01*
X12700Y100329D01*
X12674Y100325D01*
X12625Y100326D01*
X10544Y100121D01*
X10517Y100113D01*
X10489Y100113D01*
X10327Y100066D01*
X6482Y98473D01*
X6426Y98439D01*
X6366Y98413D01*
X6301Y98361D01*
X6273Y98344D01*
X6260Y98329D01*
X6235Y98308D01*
X3292Y95365D01*
X3253Y95312D01*
X3207Y95265D01*
X3167Y95192D01*
X3148Y95165D01*
X3142Y95147D01*
X3127Y95118D01*
X1534Y91273D01*
X1527Y91245D01*
X1514Y91220D01*
X1479Y91056D01*
X1274Y88975D01*
X1276Y88948D01*
X1271Y88900D01*
X1271Y12700D01*
X1275Y12674D01*
X1275Y12669D01*
X1273Y12650D01*
X1275Y12642D01*
X1274Y12625D01*
X1479Y10544D01*
X1487Y10517D01*
X1487Y10489D01*
X1534Y10327D01*
X3127Y6482D01*
X3161Y6426D01*
X3187Y6366D01*
X3239Y6301D01*
X3256Y6273D01*
X3271Y6260D01*
X3292Y6235D01*
X6235Y3292D01*
X6288Y3253D01*
X6335Y3207D01*
X6408Y3167D01*
X6435Y3148D01*
X6453Y3142D01*
X6482Y3127D01*
X10327Y1534D01*
X10355Y1527D01*
X10380Y1514D01*
X10544Y1479D01*
X12625Y1274D01*
X12652Y1276D01*
X12700Y1271D01*
X29907Y1271D01*
X29915Y1272D01*
G37*
%LPC*%
G36*
X63753Y65023D02*
X63753Y65023D01*
X63753Y75346D01*
X65026Y75145D01*
X66813Y74564D01*
X68487Y73711D01*
X70008Y72606D01*
X71336Y71278D01*
X72441Y69757D01*
X73294Y68083D01*
X73875Y66296D01*
X74076Y65023D01*
X63753Y65023D01*
G37*
%LPD*%
%LPC*%
G36*
X66293Y39623D02*
X66293Y39623D01*
X66293Y49946D01*
X67566Y49745D01*
X69353Y49164D01*
X71027Y48311D01*
X72548Y47206D01*
X73876Y45878D01*
X74981Y44357D01*
X75834Y42683D01*
X76415Y40896D01*
X76616Y39623D01*
X66293Y39623D01*
G37*
%LPD*%
%LPC*%
G36*
X63753Y61977D02*
X63753Y61977D01*
X74076Y61977D01*
X73875Y60704D01*
X73294Y58917D01*
X72441Y57243D01*
X71336Y55722D01*
X70008Y54394D01*
X68487Y53289D01*
X66813Y52436D01*
X65026Y51855D01*
X63753Y51654D01*
X63753Y61977D01*
G37*
%LPD*%
%LPC*%
G36*
X66293Y36577D02*
X66293Y36577D01*
X76616Y36577D01*
X76415Y35304D01*
X75834Y33517D01*
X74981Y31843D01*
X73876Y30322D01*
X72548Y28994D01*
X71027Y27889D01*
X69353Y27036D01*
X67566Y26455D01*
X66293Y26254D01*
X66293Y36577D01*
G37*
%LPD*%
%LPC*%
G36*
X24984Y14223D02*
X24984Y14223D01*
X25185Y15496D01*
X25766Y17283D01*
X26619Y18957D01*
X27724Y20478D01*
X29052Y21806D01*
X30573Y22911D01*
X32247Y23764D01*
X34034Y24345D01*
X35307Y24546D01*
X35307Y14223D01*
X24984Y14223D01*
G37*
%LPD*%
%LPC*%
G36*
X36574Y77255D02*
X36574Y77255D01*
X34787Y77836D01*
X33113Y78689D01*
X31592Y79794D01*
X30264Y81122D01*
X29159Y82643D01*
X28306Y84317D01*
X27725Y86104D01*
X27524Y87377D01*
X37847Y87377D01*
X37847Y77054D01*
X36574Y77255D01*
G37*
%LPD*%
D10*
X36830Y12700D03*
X39370Y38100D03*
X36830Y63500D03*
X39370Y88900D03*
X62230Y12700D03*
X64770Y38100D03*
X62230Y63500D03*
X64770Y88900D03*
M02*
