G04 EAGLE Gerber X2 export*
G75*
%MOMM*%
%FSLAX34Y34*%
%LPD*%
%AMOC8*
5,1,8,0,0,1.08239X$1,22.5*%
G01*
%ADD10C,0.050800*%
%ADD11C,2.082800*%


D10*
X94234Y25042D02*
X94234Y23772D01*
X94236Y23718D01*
X94242Y23664D01*
X94251Y23610D01*
X94265Y23557D01*
X94282Y23506D01*
X94303Y23455D01*
X94327Y23407D01*
X94355Y23360D01*
X94386Y23315D01*
X94420Y23273D01*
X94457Y23233D01*
X94497Y23196D01*
X94539Y23162D01*
X94584Y23131D01*
X94631Y23103D01*
X94679Y23079D01*
X94730Y23058D01*
X94781Y23041D01*
X94834Y23027D01*
X94888Y23018D01*
X94942Y23012D01*
X94996Y23010D01*
X96520Y23010D01*
X96574Y23012D01*
X96628Y23018D01*
X96682Y23027D01*
X96735Y23041D01*
X96786Y23058D01*
X96837Y23079D01*
X96885Y23103D01*
X96932Y23131D01*
X96977Y23162D01*
X97019Y23196D01*
X97059Y23233D01*
X97096Y23273D01*
X97130Y23315D01*
X97161Y23360D01*
X97189Y23407D01*
X97213Y23455D01*
X97234Y23506D01*
X97251Y23557D01*
X97265Y23610D01*
X97274Y23664D01*
X97280Y23718D01*
X97282Y23772D01*
X97282Y25042D01*
X93472Y25042D01*
X93418Y25040D01*
X93364Y25034D01*
X93310Y25025D01*
X93257Y25011D01*
X93206Y24994D01*
X93155Y24973D01*
X93107Y24949D01*
X93060Y24921D01*
X93015Y24890D01*
X92973Y24856D01*
X92933Y24819D01*
X92896Y24779D01*
X92862Y24737D01*
X92831Y24692D01*
X92803Y24645D01*
X92779Y24597D01*
X92758Y24546D01*
X92741Y24495D01*
X92727Y24442D01*
X92718Y24388D01*
X92712Y24334D01*
X92710Y24280D01*
X92710Y23264D01*
X94234Y27100D02*
X97282Y27100D01*
X98552Y26973D02*
X98806Y26973D01*
X98806Y27227D01*
X98552Y27227D01*
X98552Y26973D01*
X97282Y28583D02*
X97282Y30107D01*
X98806Y29091D02*
X94996Y29091D01*
X94942Y29093D01*
X94888Y29099D01*
X94834Y29108D01*
X94781Y29122D01*
X94730Y29139D01*
X94679Y29160D01*
X94631Y29184D01*
X94584Y29212D01*
X94539Y29243D01*
X94497Y29277D01*
X94457Y29314D01*
X94420Y29354D01*
X94386Y29396D01*
X94355Y29441D01*
X94327Y29488D01*
X94303Y29536D01*
X94282Y29587D01*
X94265Y29638D01*
X94251Y29691D01*
X94242Y29745D01*
X94236Y29799D01*
X94234Y29853D01*
X94234Y30107D01*
X94234Y31698D02*
X94488Y31698D01*
X94488Y31952D01*
X94234Y31952D01*
X94234Y31698D01*
X94234Y33653D02*
X97282Y33653D01*
X98552Y33526D02*
X98806Y33526D01*
X98806Y33780D01*
X98552Y33780D01*
X98552Y33526D01*
X96266Y35533D02*
X95250Y35533D01*
X96266Y35533D02*
X96329Y35535D01*
X96391Y35541D01*
X96453Y35550D01*
X96514Y35564D01*
X96574Y35581D01*
X96633Y35602D01*
X96691Y35626D01*
X96747Y35654D01*
X96801Y35685D01*
X96853Y35720D01*
X96903Y35757D01*
X96950Y35798D01*
X96995Y35842D01*
X97038Y35888D01*
X97077Y35937D01*
X97113Y35988D01*
X97146Y36041D01*
X97175Y36096D01*
X97202Y36153D01*
X97224Y36211D01*
X97243Y36271D01*
X97258Y36332D01*
X97270Y36393D01*
X97278Y36455D01*
X97282Y36518D01*
X97282Y36580D01*
X97278Y36643D01*
X97270Y36705D01*
X97258Y36766D01*
X97243Y36827D01*
X97224Y36887D01*
X97202Y36945D01*
X97175Y37002D01*
X97146Y37057D01*
X97113Y37110D01*
X97077Y37161D01*
X97038Y37210D01*
X96995Y37256D01*
X96950Y37300D01*
X96903Y37341D01*
X96853Y37378D01*
X96801Y37413D01*
X96747Y37444D01*
X96691Y37472D01*
X96633Y37496D01*
X96574Y37517D01*
X96514Y37534D01*
X96453Y37548D01*
X96391Y37557D01*
X96329Y37563D01*
X96266Y37565D01*
X95250Y37565D01*
X95187Y37563D01*
X95125Y37557D01*
X95063Y37548D01*
X95002Y37534D01*
X94942Y37517D01*
X94883Y37496D01*
X94825Y37472D01*
X94769Y37444D01*
X94715Y37413D01*
X94663Y37378D01*
X94613Y37341D01*
X94566Y37300D01*
X94521Y37256D01*
X94478Y37210D01*
X94439Y37161D01*
X94403Y37110D01*
X94370Y37057D01*
X94341Y37002D01*
X94314Y36945D01*
X94292Y36887D01*
X94273Y36827D01*
X94258Y36766D01*
X94246Y36705D01*
X94238Y36643D01*
X94234Y36580D01*
X94234Y36518D01*
X94238Y36455D01*
X94246Y36393D01*
X94258Y36332D01*
X94273Y36271D01*
X94292Y36211D01*
X94314Y36153D01*
X94341Y36096D01*
X94370Y36041D01*
X94403Y35988D01*
X94439Y35937D01*
X94478Y35888D01*
X94521Y35842D01*
X94566Y35798D01*
X94613Y35757D01*
X94663Y35720D01*
X94715Y35685D01*
X94769Y35654D01*
X94825Y35626D01*
X94883Y35602D01*
X94942Y35581D01*
X95002Y35564D01*
X95063Y35550D01*
X95125Y35541D01*
X95187Y35535D01*
X95250Y35533D01*
X93726Y39343D02*
X99314Y41375D01*
X96012Y43534D02*
X95504Y44804D01*
X96011Y43534D02*
X96032Y43488D01*
X96056Y43443D01*
X96084Y43401D01*
X96114Y43360D01*
X96148Y43322D01*
X96185Y43287D01*
X96224Y43255D01*
X96265Y43225D01*
X96309Y43200D01*
X96355Y43177D01*
X96402Y43158D01*
X96450Y43143D01*
X96500Y43132D01*
X96550Y43124D01*
X96601Y43120D01*
X96651Y43121D01*
X96702Y43125D01*
X96752Y43133D01*
X96802Y43145D01*
X96850Y43160D01*
X96897Y43180D01*
X96942Y43203D01*
X96986Y43229D01*
X97027Y43258D01*
X97066Y43291D01*
X97102Y43327D01*
X97136Y43365D01*
X97166Y43406D01*
X97193Y43448D01*
X97217Y43493D01*
X97237Y43540D01*
X97254Y43588D01*
X97267Y43637D01*
X97276Y43687D01*
X97281Y43738D01*
X97282Y43788D01*
X97278Y43895D01*
X97271Y44002D01*
X97259Y44109D01*
X97244Y44215D01*
X97224Y44320D01*
X97201Y44425D01*
X97174Y44528D01*
X97143Y44631D01*
X97108Y44732D01*
X97070Y44832D01*
X97028Y44931D01*
X95505Y44804D02*
X95484Y44850D01*
X95460Y44895D01*
X95432Y44937D01*
X95402Y44978D01*
X95368Y45016D01*
X95331Y45051D01*
X95292Y45083D01*
X95251Y45113D01*
X95207Y45138D01*
X95161Y45161D01*
X95114Y45180D01*
X95066Y45195D01*
X95016Y45206D01*
X94966Y45214D01*
X94915Y45218D01*
X94865Y45217D01*
X94814Y45213D01*
X94764Y45205D01*
X94714Y45193D01*
X94666Y45178D01*
X94619Y45158D01*
X94574Y45135D01*
X94530Y45109D01*
X94489Y45080D01*
X94450Y45047D01*
X94414Y45011D01*
X94380Y44973D01*
X94350Y44932D01*
X94323Y44890D01*
X94299Y44845D01*
X94279Y44798D01*
X94262Y44750D01*
X94249Y44701D01*
X94240Y44651D01*
X94235Y44600D01*
X94234Y44550D01*
X94233Y44549D02*
X94237Y44420D01*
X94245Y44290D01*
X94257Y44161D01*
X94272Y44032D01*
X94291Y43904D01*
X94315Y43777D01*
X94342Y43650D01*
X94372Y43524D01*
X94407Y43399D01*
X94445Y43275D01*
X94487Y43152D01*
X96012Y47978D02*
X96012Y49121D01*
X96012Y47978D02*
X96010Y47920D01*
X96004Y47862D01*
X95995Y47805D01*
X95982Y47748D01*
X95965Y47692D01*
X95944Y47638D01*
X95920Y47585D01*
X95893Y47534D01*
X95862Y47484D01*
X95828Y47437D01*
X95791Y47392D01*
X95752Y47349D01*
X95709Y47310D01*
X95664Y47273D01*
X95617Y47239D01*
X95568Y47208D01*
X95516Y47181D01*
X95463Y47157D01*
X95409Y47136D01*
X95353Y47119D01*
X95296Y47106D01*
X95239Y47097D01*
X95181Y47091D01*
X95123Y47089D01*
X95065Y47091D01*
X95007Y47097D01*
X94950Y47106D01*
X94893Y47119D01*
X94837Y47136D01*
X94783Y47157D01*
X94730Y47181D01*
X94679Y47208D01*
X94629Y47239D01*
X94582Y47273D01*
X94537Y47310D01*
X94494Y47349D01*
X94455Y47392D01*
X94418Y47437D01*
X94384Y47484D01*
X94353Y47534D01*
X94326Y47585D01*
X94302Y47638D01*
X94281Y47692D01*
X94264Y47748D01*
X94251Y47805D01*
X94242Y47862D01*
X94236Y47920D01*
X94234Y47978D01*
X94234Y49121D01*
X96520Y49121D01*
X96574Y49119D01*
X96628Y49113D01*
X96682Y49104D01*
X96735Y49090D01*
X96786Y49073D01*
X96837Y49052D01*
X96885Y49028D01*
X96932Y49000D01*
X96977Y48969D01*
X97019Y48935D01*
X97059Y48898D01*
X97096Y48858D01*
X97130Y48816D01*
X97161Y48771D01*
X97189Y48724D01*
X97213Y48676D01*
X97234Y48625D01*
X97251Y48574D01*
X97265Y48521D01*
X97274Y48467D01*
X97280Y48413D01*
X97282Y48359D01*
X97282Y47343D01*
X96266Y51230D02*
X95250Y51230D01*
X96266Y51230D02*
X96329Y51232D01*
X96391Y51238D01*
X96453Y51247D01*
X96514Y51261D01*
X96574Y51278D01*
X96633Y51299D01*
X96691Y51323D01*
X96747Y51351D01*
X96801Y51382D01*
X96853Y51417D01*
X96903Y51454D01*
X96950Y51495D01*
X96995Y51539D01*
X97038Y51585D01*
X97077Y51634D01*
X97113Y51685D01*
X97146Y51738D01*
X97175Y51793D01*
X97202Y51850D01*
X97224Y51908D01*
X97243Y51968D01*
X97258Y52029D01*
X97270Y52090D01*
X97278Y52152D01*
X97282Y52215D01*
X97282Y52277D01*
X97278Y52340D01*
X97270Y52402D01*
X97258Y52463D01*
X97243Y52524D01*
X97224Y52584D01*
X97202Y52642D01*
X97175Y52699D01*
X97146Y52754D01*
X97113Y52807D01*
X97077Y52858D01*
X97038Y52907D01*
X96995Y52953D01*
X96950Y52997D01*
X96903Y53038D01*
X96853Y53075D01*
X96801Y53110D01*
X96747Y53141D01*
X96691Y53169D01*
X96633Y53193D01*
X96574Y53214D01*
X96514Y53231D01*
X96453Y53245D01*
X96391Y53254D01*
X96329Y53260D01*
X96266Y53262D01*
X95250Y53262D01*
X95187Y53260D01*
X95125Y53254D01*
X95063Y53245D01*
X95002Y53231D01*
X94942Y53214D01*
X94883Y53193D01*
X94825Y53169D01*
X94769Y53141D01*
X94715Y53110D01*
X94663Y53075D01*
X94613Y53038D01*
X94566Y52997D01*
X94521Y52953D01*
X94478Y52907D01*
X94439Y52858D01*
X94403Y52807D01*
X94370Y52754D01*
X94341Y52699D01*
X94314Y52642D01*
X94292Y52584D01*
X94273Y52524D01*
X94258Y52463D01*
X94246Y52402D01*
X94238Y52340D01*
X94234Y52277D01*
X94234Y52215D01*
X94238Y52152D01*
X94246Y52090D01*
X94258Y52029D01*
X94273Y51968D01*
X94292Y51908D01*
X94314Y51850D01*
X94341Y51793D01*
X94370Y51738D01*
X94403Y51685D01*
X94439Y51634D01*
X94478Y51585D01*
X94521Y51539D01*
X94566Y51495D01*
X94613Y51454D01*
X94663Y51417D01*
X94715Y51382D01*
X94769Y51351D01*
X94825Y51323D01*
X94883Y51299D01*
X94942Y51278D01*
X95002Y51261D01*
X95063Y51247D01*
X95125Y51238D01*
X95187Y51232D01*
X95250Y51230D01*
X96012Y55294D02*
X96012Y58342D01*
X94234Y60618D02*
X98044Y60618D01*
X98098Y60620D01*
X98152Y60626D01*
X98206Y60635D01*
X98259Y60649D01*
X98310Y60666D01*
X98361Y60687D01*
X98409Y60711D01*
X98456Y60739D01*
X98501Y60770D01*
X98543Y60804D01*
X98583Y60841D01*
X98620Y60881D01*
X98654Y60923D01*
X98685Y60968D01*
X98713Y61015D01*
X98737Y61063D01*
X98758Y61114D01*
X98775Y61165D01*
X98789Y61218D01*
X98798Y61272D01*
X98804Y61326D01*
X98806Y61380D01*
X98806Y61634D01*
X97282Y61634D02*
X97282Y60110D01*
X98806Y63013D02*
X94996Y63013D01*
X94942Y63015D01*
X94888Y63021D01*
X94834Y63030D01*
X94781Y63044D01*
X94730Y63061D01*
X94679Y63082D01*
X94631Y63106D01*
X94584Y63134D01*
X94539Y63165D01*
X94497Y63199D01*
X94457Y63236D01*
X94420Y63276D01*
X94386Y63318D01*
X94355Y63363D01*
X94327Y63410D01*
X94303Y63458D01*
X94282Y63509D01*
X94265Y63560D01*
X94251Y63613D01*
X94242Y63667D01*
X94236Y63721D01*
X94234Y63775D01*
X94234Y65352D02*
X97282Y65352D01*
X98552Y65225D02*
X98806Y65225D01*
X98806Y65479D01*
X98552Y65479D01*
X98552Y65225D01*
X97282Y67411D02*
X92710Y67411D01*
X97282Y67411D02*
X97282Y68681D01*
X97280Y68735D01*
X97274Y68789D01*
X97265Y68843D01*
X97251Y68896D01*
X97234Y68947D01*
X97213Y68998D01*
X97189Y69046D01*
X97161Y69093D01*
X97130Y69138D01*
X97096Y69180D01*
X97059Y69220D01*
X97019Y69257D01*
X96977Y69291D01*
X96932Y69322D01*
X96885Y69350D01*
X96837Y69374D01*
X96786Y69395D01*
X96735Y69412D01*
X96682Y69426D01*
X96628Y69435D01*
X96574Y69441D01*
X96520Y69443D01*
X94996Y69443D01*
X94942Y69441D01*
X94888Y69435D01*
X94834Y69426D01*
X94781Y69412D01*
X94730Y69395D01*
X94679Y69374D01*
X94631Y69350D01*
X94584Y69322D01*
X94539Y69291D01*
X94497Y69257D01*
X94457Y69220D01*
X94420Y69180D01*
X94386Y69138D01*
X94355Y69093D01*
X94327Y69046D01*
X94303Y68998D01*
X94282Y68947D01*
X94265Y68896D01*
X94251Y68843D01*
X94242Y68789D01*
X94236Y68735D01*
X94234Y68681D01*
X94234Y67411D01*
X92710Y71525D02*
X97282Y71525D01*
X97282Y72795D01*
X97280Y72849D01*
X97274Y72903D01*
X97265Y72957D01*
X97251Y73010D01*
X97234Y73061D01*
X97213Y73112D01*
X97189Y73160D01*
X97161Y73207D01*
X97130Y73252D01*
X97096Y73294D01*
X97059Y73334D01*
X97019Y73371D01*
X96977Y73405D01*
X96932Y73436D01*
X96885Y73464D01*
X96837Y73488D01*
X96786Y73509D01*
X96735Y73526D01*
X96682Y73540D01*
X96628Y73549D01*
X96574Y73555D01*
X96520Y73557D01*
X94996Y73557D01*
X94942Y73555D01*
X94888Y73549D01*
X94834Y73540D01*
X94781Y73526D01*
X94730Y73509D01*
X94679Y73488D01*
X94631Y73464D01*
X94584Y73436D01*
X94539Y73405D01*
X94497Y73371D01*
X94457Y73334D01*
X94420Y73294D01*
X94386Y73252D01*
X94355Y73207D01*
X94327Y73160D01*
X94303Y73112D01*
X94282Y73061D01*
X94265Y73010D01*
X94251Y72957D01*
X94242Y72903D01*
X94236Y72849D01*
X94234Y72795D01*
X94234Y71525D01*
X94234Y76223D02*
X94234Y77493D01*
X94234Y76223D02*
X94236Y76169D01*
X94242Y76115D01*
X94251Y76061D01*
X94265Y76008D01*
X94282Y75957D01*
X94303Y75906D01*
X94327Y75858D01*
X94355Y75811D01*
X94386Y75766D01*
X94420Y75724D01*
X94457Y75684D01*
X94497Y75647D01*
X94539Y75613D01*
X94584Y75582D01*
X94631Y75554D01*
X94679Y75530D01*
X94730Y75509D01*
X94781Y75492D01*
X94834Y75478D01*
X94888Y75469D01*
X94942Y75463D01*
X94996Y75461D01*
X96266Y75461D01*
X96329Y75463D01*
X96391Y75469D01*
X96453Y75478D01*
X96514Y75492D01*
X96574Y75509D01*
X96633Y75530D01*
X96691Y75554D01*
X96747Y75582D01*
X96801Y75613D01*
X96853Y75648D01*
X96903Y75685D01*
X96950Y75726D01*
X96995Y75770D01*
X97038Y75816D01*
X97077Y75865D01*
X97113Y75916D01*
X97146Y75969D01*
X97175Y76024D01*
X97202Y76081D01*
X97224Y76139D01*
X97243Y76199D01*
X97258Y76260D01*
X97270Y76321D01*
X97278Y76383D01*
X97282Y76446D01*
X97282Y76508D01*
X97278Y76571D01*
X97270Y76633D01*
X97258Y76694D01*
X97243Y76755D01*
X97224Y76815D01*
X97202Y76873D01*
X97175Y76930D01*
X97146Y76985D01*
X97113Y77038D01*
X97077Y77089D01*
X97038Y77138D01*
X96995Y77184D01*
X96950Y77228D01*
X96903Y77269D01*
X96853Y77306D01*
X96801Y77341D01*
X96747Y77372D01*
X96691Y77400D01*
X96633Y77424D01*
X96574Y77445D01*
X96514Y77462D01*
X96453Y77476D01*
X96391Y77485D01*
X96329Y77491D01*
X96266Y77493D01*
X95758Y77493D01*
X95758Y75461D01*
X94234Y79606D02*
X97282Y79606D01*
X97282Y81130D01*
X96774Y81130D01*
X9144Y13851D02*
X5334Y13851D01*
X9144Y13851D02*
X9198Y13853D01*
X9252Y13859D01*
X9306Y13868D01*
X9359Y13882D01*
X9410Y13899D01*
X9461Y13920D01*
X9509Y13944D01*
X9556Y13972D01*
X9601Y14003D01*
X9643Y14037D01*
X9683Y14074D01*
X9720Y14114D01*
X9754Y14156D01*
X9785Y14201D01*
X9813Y14248D01*
X9837Y14296D01*
X9858Y14347D01*
X9875Y14398D01*
X9889Y14451D01*
X9898Y14505D01*
X9904Y14559D01*
X9906Y14613D01*
X9906Y14867D01*
X8382Y14867D02*
X8382Y13343D01*
X7366Y16198D02*
X6350Y16198D01*
X7366Y16198D02*
X7429Y16200D01*
X7491Y16206D01*
X7553Y16215D01*
X7614Y16229D01*
X7674Y16246D01*
X7733Y16267D01*
X7791Y16291D01*
X7847Y16319D01*
X7901Y16350D01*
X7953Y16385D01*
X8003Y16422D01*
X8050Y16463D01*
X8095Y16507D01*
X8138Y16553D01*
X8177Y16602D01*
X8213Y16653D01*
X8246Y16706D01*
X8275Y16761D01*
X8302Y16818D01*
X8324Y16876D01*
X8343Y16936D01*
X8358Y16997D01*
X8370Y17058D01*
X8378Y17120D01*
X8382Y17183D01*
X8382Y17245D01*
X8378Y17308D01*
X8370Y17370D01*
X8358Y17431D01*
X8343Y17492D01*
X8324Y17552D01*
X8302Y17610D01*
X8275Y17667D01*
X8246Y17722D01*
X8213Y17775D01*
X8177Y17826D01*
X8138Y17875D01*
X8095Y17921D01*
X8050Y17965D01*
X8003Y18006D01*
X7953Y18043D01*
X7901Y18078D01*
X7847Y18109D01*
X7791Y18137D01*
X7733Y18161D01*
X7674Y18182D01*
X7614Y18199D01*
X7553Y18213D01*
X7491Y18222D01*
X7429Y18228D01*
X7366Y18230D01*
X6350Y18230D01*
X6287Y18228D01*
X6225Y18222D01*
X6163Y18213D01*
X6102Y18199D01*
X6042Y18182D01*
X5983Y18161D01*
X5925Y18137D01*
X5869Y18109D01*
X5815Y18078D01*
X5763Y18043D01*
X5713Y18006D01*
X5666Y17965D01*
X5621Y17921D01*
X5578Y17875D01*
X5539Y17826D01*
X5503Y17775D01*
X5470Y17722D01*
X5441Y17667D01*
X5414Y17610D01*
X5392Y17552D01*
X5373Y17492D01*
X5358Y17431D01*
X5346Y17370D01*
X5338Y17308D01*
X5334Y17245D01*
X5334Y17183D01*
X5338Y17120D01*
X5346Y17058D01*
X5358Y16997D01*
X5373Y16936D01*
X5392Y16876D01*
X5414Y16818D01*
X5441Y16761D01*
X5470Y16706D01*
X5503Y16653D01*
X5539Y16602D01*
X5578Y16553D01*
X5621Y16507D01*
X5666Y16463D01*
X5713Y16422D01*
X5763Y16385D01*
X5815Y16350D01*
X5869Y16319D01*
X5925Y16291D01*
X5983Y16267D01*
X6042Y16246D01*
X6102Y16229D01*
X6163Y16215D01*
X6225Y16206D01*
X6287Y16200D01*
X6350Y16198D01*
X5334Y20343D02*
X8382Y20343D01*
X8382Y21867D01*
X7874Y21867D01*
X8382Y25951D02*
X6096Y25951D01*
X6042Y25953D01*
X5988Y25959D01*
X5934Y25968D01*
X5881Y25982D01*
X5830Y25999D01*
X5779Y26020D01*
X5731Y26044D01*
X5684Y26072D01*
X5639Y26103D01*
X5597Y26137D01*
X5557Y26174D01*
X5520Y26214D01*
X5486Y26256D01*
X5455Y26301D01*
X5427Y26348D01*
X5403Y26396D01*
X5382Y26447D01*
X5365Y26498D01*
X5351Y26551D01*
X5342Y26605D01*
X5336Y26659D01*
X5334Y26713D01*
X5334Y27983D01*
X8382Y27983D01*
X8382Y30245D02*
X3810Y30245D01*
X8382Y30245D02*
X8382Y31515D01*
X8380Y31569D01*
X8374Y31623D01*
X8365Y31677D01*
X8351Y31730D01*
X8334Y31781D01*
X8313Y31832D01*
X8289Y31880D01*
X8261Y31927D01*
X8230Y31972D01*
X8196Y32014D01*
X8159Y32054D01*
X8119Y32091D01*
X8077Y32125D01*
X8032Y32156D01*
X7985Y32184D01*
X7937Y32208D01*
X7886Y32229D01*
X7835Y32246D01*
X7782Y32260D01*
X7728Y32269D01*
X7674Y32275D01*
X7620Y32277D01*
X6096Y32277D01*
X6042Y32275D01*
X5988Y32269D01*
X5934Y32260D01*
X5881Y32246D01*
X5830Y32229D01*
X5779Y32208D01*
X5731Y32184D01*
X5684Y32156D01*
X5639Y32125D01*
X5597Y32091D01*
X5557Y32054D01*
X5520Y32014D01*
X5486Y31972D01*
X5455Y31927D01*
X5427Y31880D01*
X5403Y31832D01*
X5382Y31781D01*
X5365Y31730D01*
X5351Y31677D01*
X5342Y31623D01*
X5336Y31569D01*
X5334Y31515D01*
X5334Y30245D01*
X7112Y34562D02*
X6604Y35832D01*
X7111Y34562D02*
X7132Y34516D01*
X7156Y34471D01*
X7184Y34429D01*
X7214Y34388D01*
X7248Y34350D01*
X7285Y34315D01*
X7324Y34283D01*
X7365Y34253D01*
X7409Y34228D01*
X7455Y34205D01*
X7502Y34186D01*
X7550Y34171D01*
X7600Y34160D01*
X7650Y34152D01*
X7701Y34148D01*
X7751Y34149D01*
X7802Y34153D01*
X7852Y34161D01*
X7902Y34173D01*
X7950Y34188D01*
X7997Y34208D01*
X8042Y34231D01*
X8086Y34257D01*
X8127Y34286D01*
X8166Y34319D01*
X8202Y34355D01*
X8236Y34393D01*
X8266Y34434D01*
X8293Y34476D01*
X8317Y34521D01*
X8337Y34568D01*
X8354Y34616D01*
X8367Y34665D01*
X8376Y34715D01*
X8381Y34766D01*
X8382Y34816D01*
X8378Y34923D01*
X8371Y35030D01*
X8359Y35137D01*
X8344Y35243D01*
X8324Y35348D01*
X8301Y35453D01*
X8274Y35556D01*
X8243Y35659D01*
X8208Y35760D01*
X8170Y35860D01*
X8128Y35959D01*
X6605Y35832D02*
X6584Y35878D01*
X6560Y35923D01*
X6532Y35965D01*
X6502Y36006D01*
X6468Y36044D01*
X6431Y36079D01*
X6392Y36111D01*
X6351Y36141D01*
X6307Y36166D01*
X6261Y36189D01*
X6214Y36208D01*
X6166Y36223D01*
X6116Y36234D01*
X6066Y36242D01*
X6015Y36246D01*
X5965Y36245D01*
X5914Y36241D01*
X5864Y36233D01*
X5814Y36221D01*
X5766Y36206D01*
X5719Y36186D01*
X5674Y36163D01*
X5630Y36137D01*
X5589Y36108D01*
X5550Y36075D01*
X5514Y36039D01*
X5480Y36001D01*
X5450Y35960D01*
X5423Y35918D01*
X5399Y35873D01*
X5379Y35826D01*
X5362Y35778D01*
X5349Y35729D01*
X5340Y35679D01*
X5335Y35628D01*
X5334Y35578D01*
X5333Y35577D02*
X5337Y35448D01*
X5345Y35318D01*
X5357Y35189D01*
X5372Y35060D01*
X5391Y34932D01*
X5415Y34805D01*
X5442Y34678D01*
X5472Y34552D01*
X5507Y34427D01*
X5545Y34303D01*
X5587Y34180D01*
X5334Y38092D02*
X8382Y38092D01*
X9652Y37965D02*
X9906Y37965D01*
X9906Y38219D01*
X9652Y38219D01*
X9652Y37965D01*
X9906Y41978D02*
X5334Y41978D01*
X5334Y40708D01*
X5336Y40654D01*
X5342Y40600D01*
X5351Y40546D01*
X5365Y40493D01*
X5382Y40442D01*
X5403Y40391D01*
X5427Y40343D01*
X5455Y40296D01*
X5486Y40251D01*
X5520Y40209D01*
X5557Y40169D01*
X5597Y40132D01*
X5639Y40098D01*
X5684Y40067D01*
X5731Y40039D01*
X5779Y40015D01*
X5830Y39994D01*
X5881Y39977D01*
X5934Y39963D01*
X5988Y39954D01*
X6042Y39948D01*
X6096Y39946D01*
X7620Y39946D01*
X7674Y39948D01*
X7728Y39954D01*
X7782Y39963D01*
X7835Y39977D01*
X7886Y39994D01*
X7937Y40015D01*
X7985Y40039D01*
X8032Y40067D01*
X8077Y40098D01*
X8119Y40132D01*
X8159Y40169D01*
X8196Y40209D01*
X8230Y40251D01*
X8261Y40296D01*
X8289Y40343D01*
X8313Y40391D01*
X8334Y40442D01*
X8351Y40493D01*
X8365Y40546D01*
X8374Y40600D01*
X8380Y40654D01*
X8382Y40708D01*
X8382Y41978D01*
X5334Y44849D02*
X5334Y46119D01*
X5334Y44849D02*
X5336Y44795D01*
X5342Y44741D01*
X5351Y44687D01*
X5365Y44634D01*
X5382Y44583D01*
X5403Y44532D01*
X5427Y44484D01*
X5455Y44437D01*
X5486Y44392D01*
X5520Y44350D01*
X5557Y44310D01*
X5597Y44273D01*
X5639Y44239D01*
X5684Y44208D01*
X5731Y44180D01*
X5779Y44156D01*
X5830Y44135D01*
X5881Y44118D01*
X5934Y44104D01*
X5988Y44095D01*
X6042Y44089D01*
X6096Y44087D01*
X7366Y44087D01*
X7429Y44089D01*
X7491Y44095D01*
X7553Y44104D01*
X7614Y44118D01*
X7674Y44135D01*
X7733Y44156D01*
X7791Y44180D01*
X7847Y44208D01*
X7901Y44239D01*
X7953Y44274D01*
X8003Y44311D01*
X8050Y44352D01*
X8095Y44396D01*
X8138Y44442D01*
X8177Y44491D01*
X8213Y44542D01*
X8246Y44595D01*
X8275Y44650D01*
X8302Y44707D01*
X8324Y44765D01*
X8343Y44825D01*
X8358Y44886D01*
X8370Y44947D01*
X8378Y45009D01*
X8382Y45072D01*
X8382Y45134D01*
X8378Y45197D01*
X8370Y45259D01*
X8358Y45320D01*
X8343Y45381D01*
X8324Y45441D01*
X8302Y45499D01*
X8275Y45556D01*
X8246Y45611D01*
X8213Y45664D01*
X8177Y45715D01*
X8138Y45764D01*
X8095Y45810D01*
X8050Y45854D01*
X8003Y45895D01*
X7953Y45932D01*
X7901Y45967D01*
X7847Y45998D01*
X7791Y46026D01*
X7733Y46050D01*
X7674Y46071D01*
X7614Y46088D01*
X7553Y46102D01*
X7491Y46111D01*
X7429Y46117D01*
X7366Y46119D01*
X6858Y46119D01*
X6858Y44087D01*
X5334Y52493D02*
X9906Y52493D01*
X5334Y52493D02*
X5334Y51223D01*
X5336Y51169D01*
X5342Y51115D01*
X5351Y51061D01*
X5365Y51008D01*
X5382Y50957D01*
X5403Y50906D01*
X5427Y50858D01*
X5455Y50811D01*
X5486Y50766D01*
X5520Y50724D01*
X5557Y50684D01*
X5597Y50647D01*
X5639Y50613D01*
X5684Y50582D01*
X5731Y50554D01*
X5779Y50530D01*
X5830Y50509D01*
X5881Y50492D01*
X5934Y50478D01*
X5988Y50469D01*
X6042Y50463D01*
X6096Y50461D01*
X7620Y50461D01*
X7674Y50463D01*
X7728Y50469D01*
X7782Y50478D01*
X7835Y50492D01*
X7886Y50509D01*
X7937Y50530D01*
X7985Y50554D01*
X8032Y50582D01*
X8077Y50613D01*
X8119Y50647D01*
X8159Y50684D01*
X8196Y50724D01*
X8230Y50766D01*
X8261Y50811D01*
X8289Y50858D01*
X8313Y50906D01*
X8334Y50957D01*
X8351Y51008D01*
X8365Y51061D01*
X8374Y51115D01*
X8380Y51169D01*
X8382Y51223D01*
X8382Y52493D01*
X7366Y54602D02*
X6350Y54602D01*
X7366Y54602D02*
X7429Y54604D01*
X7491Y54610D01*
X7553Y54619D01*
X7614Y54633D01*
X7674Y54650D01*
X7733Y54671D01*
X7791Y54695D01*
X7847Y54723D01*
X7901Y54754D01*
X7953Y54789D01*
X8003Y54826D01*
X8050Y54867D01*
X8095Y54911D01*
X8138Y54957D01*
X8177Y55006D01*
X8213Y55057D01*
X8246Y55110D01*
X8275Y55165D01*
X8302Y55222D01*
X8324Y55280D01*
X8343Y55340D01*
X8358Y55401D01*
X8370Y55462D01*
X8378Y55524D01*
X8382Y55587D01*
X8382Y55649D01*
X8378Y55712D01*
X8370Y55774D01*
X8358Y55835D01*
X8343Y55896D01*
X8324Y55956D01*
X8302Y56014D01*
X8275Y56071D01*
X8246Y56126D01*
X8213Y56179D01*
X8177Y56230D01*
X8138Y56279D01*
X8095Y56325D01*
X8050Y56369D01*
X8003Y56410D01*
X7953Y56447D01*
X7901Y56482D01*
X7847Y56513D01*
X7791Y56541D01*
X7733Y56565D01*
X7674Y56586D01*
X7614Y56603D01*
X7553Y56617D01*
X7491Y56626D01*
X7429Y56632D01*
X7366Y56634D01*
X6350Y56634D01*
X6287Y56632D01*
X6225Y56626D01*
X6163Y56617D01*
X6102Y56603D01*
X6042Y56586D01*
X5983Y56565D01*
X5925Y56541D01*
X5869Y56513D01*
X5815Y56482D01*
X5763Y56447D01*
X5713Y56410D01*
X5666Y56369D01*
X5621Y56325D01*
X5578Y56279D01*
X5539Y56230D01*
X5503Y56179D01*
X5470Y56126D01*
X5441Y56071D01*
X5414Y56014D01*
X5392Y55956D01*
X5373Y55896D01*
X5358Y55835D01*
X5346Y55774D01*
X5338Y55712D01*
X5334Y55649D01*
X5334Y55587D01*
X5338Y55524D01*
X5346Y55462D01*
X5358Y55401D01*
X5373Y55340D01*
X5392Y55280D01*
X5414Y55222D01*
X5441Y55165D01*
X5470Y55110D01*
X5503Y55057D01*
X5539Y55006D01*
X5578Y54957D01*
X5621Y54911D01*
X5666Y54867D01*
X5713Y54826D01*
X5763Y54789D01*
X5815Y54754D01*
X5869Y54723D01*
X5925Y54695D01*
X5983Y54671D01*
X6042Y54650D01*
X6102Y54633D01*
X6163Y54619D01*
X6225Y54610D01*
X6287Y54604D01*
X6350Y54602D01*
X8382Y58514D02*
X5334Y59276D01*
X7366Y60038D01*
X5334Y60800D01*
X8382Y61562D01*
X8382Y63594D02*
X5334Y63594D01*
X8382Y63594D02*
X8382Y64864D01*
X8380Y64918D01*
X8374Y64972D01*
X8365Y65026D01*
X8351Y65079D01*
X8334Y65130D01*
X8313Y65181D01*
X8289Y65229D01*
X8261Y65276D01*
X8230Y65321D01*
X8196Y65363D01*
X8159Y65403D01*
X8119Y65440D01*
X8077Y65474D01*
X8032Y65505D01*
X7985Y65533D01*
X7937Y65557D01*
X7886Y65578D01*
X7835Y65595D01*
X7782Y65609D01*
X7728Y65618D01*
X7674Y65624D01*
X7620Y65626D01*
X5334Y65626D01*
X5334Y71569D02*
X5336Y71630D01*
X5341Y71691D01*
X5351Y71752D01*
X5364Y71812D01*
X5380Y71871D01*
X5400Y71929D01*
X5424Y71986D01*
X5450Y72041D01*
X5481Y72095D01*
X5514Y72146D01*
X5550Y72196D01*
X5590Y72243D01*
X5632Y72287D01*
X5676Y72329D01*
X5723Y72369D01*
X5773Y72405D01*
X5824Y72438D01*
X5878Y72469D01*
X5933Y72495D01*
X5990Y72519D01*
X6048Y72539D01*
X6107Y72555D01*
X6167Y72568D01*
X6228Y72578D01*
X6289Y72583D01*
X6350Y72585D01*
X5334Y71569D02*
X5336Y71480D01*
X5341Y71391D01*
X5351Y71302D01*
X5364Y71214D01*
X5380Y71126D01*
X5400Y71039D01*
X5424Y70954D01*
X5452Y70869D01*
X5482Y70785D01*
X5517Y70703D01*
X5554Y70622D01*
X5595Y70543D01*
X5640Y70465D01*
X5687Y70390D01*
X5738Y70316D01*
X5791Y70245D01*
X5848Y70176D01*
X5907Y70109D01*
X5969Y70045D01*
X8890Y70172D02*
X8951Y70174D01*
X9012Y70179D01*
X9073Y70189D01*
X9133Y70202D01*
X9192Y70218D01*
X9250Y70238D01*
X9307Y70262D01*
X9362Y70288D01*
X9416Y70319D01*
X9467Y70352D01*
X9517Y70388D01*
X9564Y70428D01*
X9608Y70470D01*
X9650Y70514D01*
X9690Y70561D01*
X9726Y70611D01*
X9759Y70662D01*
X9790Y70716D01*
X9816Y70771D01*
X9840Y70828D01*
X9860Y70886D01*
X9876Y70945D01*
X9889Y71005D01*
X9899Y71066D01*
X9904Y71127D01*
X9906Y71188D01*
X9904Y71270D01*
X9899Y71351D01*
X9890Y71432D01*
X9878Y71513D01*
X9862Y71593D01*
X9843Y71673D01*
X9821Y71752D01*
X9795Y71829D01*
X9766Y71905D01*
X9733Y71980D01*
X9698Y72054D01*
X9659Y72126D01*
X9617Y72196D01*
X9573Y72265D01*
X9525Y72331D01*
X8001Y70680D02*
X8035Y70627D01*
X8071Y70576D01*
X8111Y70527D01*
X8154Y70481D01*
X8200Y70437D01*
X8248Y70396D01*
X8298Y70359D01*
X8351Y70324D01*
X8406Y70293D01*
X8462Y70265D01*
X8520Y70241D01*
X8580Y70220D01*
X8640Y70203D01*
X8702Y70189D01*
X8764Y70180D01*
X8827Y70174D01*
X8890Y70172D01*
X7239Y72077D02*
X7205Y72130D01*
X7169Y72181D01*
X7129Y72230D01*
X7086Y72276D01*
X7040Y72320D01*
X6992Y72361D01*
X6942Y72398D01*
X6889Y72433D01*
X6834Y72464D01*
X6778Y72492D01*
X6720Y72516D01*
X6660Y72537D01*
X6600Y72554D01*
X6538Y72568D01*
X6476Y72577D01*
X6413Y72583D01*
X6350Y72585D01*
X7239Y72077D02*
X8001Y70680D01*
X5334Y74211D02*
X9906Y75735D01*
X5334Y77259D01*
X6477Y76878D02*
X6477Y74592D01*
X6604Y79037D02*
X8636Y79037D01*
X8706Y79039D01*
X8776Y79045D01*
X8845Y79054D01*
X8914Y79068D01*
X8982Y79085D01*
X9048Y79106D01*
X9114Y79130D01*
X9178Y79158D01*
X9240Y79190D01*
X9301Y79225D01*
X9360Y79263D01*
X9416Y79305D01*
X9470Y79349D01*
X9522Y79397D01*
X9570Y79447D01*
X9616Y79500D01*
X9659Y79555D01*
X9699Y79612D01*
X9736Y79672D01*
X9769Y79734D01*
X9799Y79797D01*
X9825Y79862D01*
X9848Y79928D01*
X9867Y79995D01*
X9882Y80064D01*
X9894Y80133D01*
X9902Y80202D01*
X9906Y80272D01*
X9906Y80342D01*
X9902Y80412D01*
X9894Y80481D01*
X9882Y80550D01*
X9867Y80619D01*
X9848Y80686D01*
X9825Y80752D01*
X9799Y80817D01*
X9769Y80880D01*
X9736Y80942D01*
X9699Y81002D01*
X9659Y81059D01*
X9616Y81114D01*
X9570Y81167D01*
X9522Y81217D01*
X9470Y81265D01*
X9416Y81309D01*
X9360Y81351D01*
X9301Y81389D01*
X9240Y81424D01*
X9178Y81456D01*
X9114Y81484D01*
X9048Y81508D01*
X8982Y81529D01*
X8914Y81546D01*
X8845Y81560D01*
X8776Y81569D01*
X8706Y81575D01*
X8636Y81577D01*
X6604Y81577D01*
X6534Y81575D01*
X6464Y81569D01*
X6395Y81560D01*
X6326Y81546D01*
X6258Y81529D01*
X6192Y81508D01*
X6126Y81484D01*
X6062Y81456D01*
X6000Y81424D01*
X5939Y81389D01*
X5880Y81351D01*
X5824Y81309D01*
X5770Y81265D01*
X5718Y81217D01*
X5670Y81167D01*
X5624Y81114D01*
X5581Y81059D01*
X5541Y81002D01*
X5504Y80942D01*
X5471Y80880D01*
X5441Y80817D01*
X5415Y80752D01*
X5392Y80686D01*
X5373Y80619D01*
X5358Y80550D01*
X5346Y80481D01*
X5338Y80412D01*
X5334Y80342D01*
X5334Y80272D01*
X5338Y80202D01*
X5346Y80133D01*
X5358Y80064D01*
X5373Y79995D01*
X5392Y79928D01*
X5415Y79862D01*
X5441Y79797D01*
X5471Y79734D01*
X5504Y79672D01*
X5541Y79612D01*
X5581Y79555D01*
X5624Y79500D01*
X5670Y79447D01*
X5718Y79397D01*
X5770Y79349D01*
X5824Y79305D01*
X5880Y79263D01*
X5939Y79225D01*
X6000Y79190D01*
X6062Y79158D01*
X6126Y79130D01*
X6192Y79106D01*
X6258Y79085D01*
X6326Y79068D01*
X6395Y79054D01*
X6464Y79045D01*
X6534Y79039D01*
X6604Y79037D01*
X7112Y83939D02*
X6604Y85209D01*
X7111Y83939D02*
X7132Y83893D01*
X7156Y83848D01*
X7184Y83806D01*
X7214Y83765D01*
X7248Y83727D01*
X7285Y83692D01*
X7324Y83660D01*
X7365Y83630D01*
X7409Y83605D01*
X7455Y83582D01*
X7502Y83563D01*
X7550Y83548D01*
X7600Y83537D01*
X7650Y83529D01*
X7701Y83525D01*
X7751Y83526D01*
X7802Y83530D01*
X7852Y83538D01*
X7902Y83550D01*
X7950Y83565D01*
X7997Y83585D01*
X8042Y83608D01*
X8086Y83634D01*
X8127Y83663D01*
X8166Y83696D01*
X8202Y83732D01*
X8236Y83770D01*
X8266Y83811D01*
X8293Y83853D01*
X8317Y83898D01*
X8337Y83945D01*
X8354Y83993D01*
X8367Y84042D01*
X8376Y84092D01*
X8381Y84143D01*
X8382Y84193D01*
X8378Y84300D01*
X8371Y84407D01*
X8359Y84514D01*
X8344Y84620D01*
X8324Y84725D01*
X8301Y84830D01*
X8274Y84933D01*
X8243Y85036D01*
X8208Y85137D01*
X8170Y85237D01*
X8128Y85336D01*
X6605Y85209D02*
X6584Y85255D01*
X6560Y85300D01*
X6532Y85342D01*
X6502Y85383D01*
X6468Y85421D01*
X6431Y85456D01*
X6392Y85488D01*
X6351Y85518D01*
X6307Y85543D01*
X6261Y85566D01*
X6214Y85585D01*
X6166Y85600D01*
X6116Y85611D01*
X6066Y85619D01*
X6015Y85623D01*
X5965Y85622D01*
X5914Y85618D01*
X5864Y85610D01*
X5814Y85598D01*
X5766Y85583D01*
X5719Y85563D01*
X5674Y85540D01*
X5630Y85514D01*
X5589Y85485D01*
X5550Y85452D01*
X5514Y85416D01*
X5480Y85378D01*
X5450Y85337D01*
X5423Y85295D01*
X5399Y85250D01*
X5379Y85203D01*
X5362Y85155D01*
X5349Y85106D01*
X5340Y85056D01*
X5335Y85005D01*
X5334Y84955D01*
X5333Y84955D02*
X5337Y84826D01*
X5345Y84696D01*
X5357Y84567D01*
X5372Y84438D01*
X5391Y84310D01*
X5415Y84183D01*
X5442Y84056D01*
X5472Y83930D01*
X5507Y83805D01*
X5545Y83681D01*
X5587Y83558D01*
D11*
X36830Y12700D03*
X39370Y38100D03*
X36830Y63500D03*
X39370Y88900D03*
X62230Y12700D03*
X64770Y38100D03*
X62230Y63500D03*
X64770Y88900D03*
M02*
