G04 EAGLE Gerber X2 export*
G75*
%MOMM*%
%FSLAX34Y34*%
%LPD*%
%AMOC8*
5,1,8,0,0,1.08239X$1,22.5*%
G01*
%ADD10C,0.254000*%


D10*
X0Y12700D02*
X48Y11593D01*
X193Y10495D01*
X433Y9413D01*
X766Y8356D01*
X1190Y7333D01*
X1701Y6350D01*
X2297Y5416D01*
X2971Y4537D01*
X3720Y3720D01*
X4537Y2971D01*
X5416Y2297D01*
X6350Y1701D01*
X7333Y1190D01*
X8356Y766D01*
X9413Y433D01*
X10495Y193D01*
X11593Y48D01*
X12700Y0D01*
X88900Y0D01*
X90007Y48D01*
X91105Y193D01*
X92187Y433D01*
X93244Y766D01*
X94267Y1190D01*
X95250Y1701D01*
X96184Y2297D01*
X97063Y2971D01*
X97880Y3720D01*
X98629Y4537D01*
X99303Y5416D01*
X99899Y6350D01*
X100410Y7333D01*
X100834Y8356D01*
X101167Y9413D01*
X101407Y10495D01*
X101552Y11593D01*
X101600Y12700D01*
X101600Y88900D01*
X101552Y90007D01*
X101407Y91105D01*
X101167Y92187D01*
X100834Y93244D01*
X100410Y94267D01*
X99899Y95250D01*
X99303Y96184D01*
X98629Y97063D01*
X97880Y97880D01*
X97063Y98629D01*
X96184Y99303D01*
X95250Y99899D01*
X94267Y100410D01*
X93244Y100834D01*
X92187Y101167D01*
X91105Y101407D01*
X90007Y101552D01*
X88900Y101600D01*
X12700Y101600D01*
X11593Y101552D01*
X10495Y101407D01*
X9413Y101167D01*
X8356Y100834D01*
X7333Y100410D01*
X6350Y99899D01*
X5416Y99303D01*
X4537Y98629D01*
X3720Y97880D01*
X2971Y97063D01*
X2297Y96184D01*
X1701Y95250D01*
X1190Y94267D01*
X766Y93244D01*
X433Y92187D01*
X193Y91105D01*
X48Y90007D01*
X0Y88900D01*
X0Y12700D01*
M02*
